# Blender 4.1.1
# www.blender.org
mtllib Challenge.016.mtl
o Challenge.015
v 4.684899 -6.045901 -20.035973
v 4.684899 -8.468687 -20.035973
v 4.684899 8.468687 20.035971
v 4.684899 6.045901 20.035971
v -4.684899 -6.045901 -20.035973
v -4.684899 -8.468687 -20.035973
v -4.684899 8.468687 20.035971
v -4.684899 6.045901 20.035971
vn -0.0000 0.9402 -0.3406
vn -0.0000 -0.0000 1.0000
vn -1.0000 -0.0000 -0.0000
vn -0.0000 -0.9402 0.3406
vn 1.0000 -0.0000 -0.0000
vn -0.0000 -0.0000 -1.0000
vt 0.875000 0.500000
vt 0.625000 0.750000
vt 0.625000 0.500000
vt 0.375000 1.000000
vt 0.375000 0.750000
vt 0.375000 0.000000
vt 0.625000 0.250000
vt 0.375000 0.250000
vt 0.375000 0.500000
vt 0.125000 0.750000
vt 0.125000 0.500000
vt 0.875000 0.750000
vt 0.625000 1.000000
vt 0.625000 0.000000
s 0
usemtl Material.030
f 5/1/1 3/2/1 1/3/1
f 3/2/2 8/4/2 4/5/2
f 8/6/3 5/7/3 6/8/3
f 2/9/4 8/10/4 6/11/4
f 1/3/5 4/5/5 2/9/5
f 5/7/6 2/9/6 6/8/6
f 5/1/1 7/12/1 3/2/1
f 3/2/2 7/13/2 8/4/2
f 8/6/3 7/14/3 5/7/3
f 2/9/4 4/5/4 8/10/4
f 1/3/5 3/2/5 4/5/5
f 5/7/6 1/3/6 2/9/6
