# Blender 4.1.1
# www.blender.org
mtllib Shape_IndexedFaceSet.011.mtl
o Shape_IndexedFaceSet.011
v 0.070295 -6.602831 -0.727353
v 1.758909 -6.602527 -0.214178
v 0.070362 -6.090836 -0.727873
v 0.070362 -6.090836 -0.727873
v 1.758909 -6.602527 -0.214178
v 1.758976 -6.090530 -0.214698
v 1.758976 -6.090530 -0.214698
v 1.759012 -6.089581 -0.265699
v 0.070362 -6.090836 -0.727873
v 1.759012 -6.089581 -0.265699
v 0.070398 -6.090887 -0.778873
v 0.070362 -6.090836 -0.727873
v 0.070398 -6.090887 -0.778873
v 1.759012 -6.089581 -0.265699
v 1.758945 -6.602578 -0.265178
v 0.070331 -6.602883 -0.778353
v 0.070398 -6.090887 -0.778873
v 1.758945 -6.602578 -0.265178
v 0.070295 -6.602831 -0.727353
v 0.070331 -6.602883 -0.778353
v 1.758909 -6.602527 -0.214178
v 0.070331 -6.602883 -0.778353
v 1.758945 -6.602578 -0.265178
v 1.758909 -6.602527 -0.214178
v -2.478057 1.149146 -2.989997
v -2.438077 1.001141 -2.989819
v -2.478075 1.149172 -2.963997
v -2.438077 1.001141 -2.989819
v -2.438095 1.001168 -2.963819
v -2.478075 1.149172 -2.963997
v -2.438077 1.001141 -2.989819
v -1.566081 1.208056 -2.962421
v -2.438095 1.001168 -2.963819
v -1.566081 1.208056 -2.962421
v -1.606061 1.356060 -2.962600
v -1.566099 1.208082 -2.936421
v -1.606061 1.356060 -2.962600
v -1.606079 1.356086 -2.936600
v -1.566099 1.208082 -2.936421
v -1.606061 1.356060 -2.962600
v -1.566081 1.208056 -2.962421
v -2.478057 1.149146 -2.989997
v -1.566081 1.208056 -2.962421
v -2.438077 1.001141 -2.989819
v -2.478057 1.149146 -2.989997
v -2.478057 1.149146 -2.989997
v -2.478075 1.149172 -2.963997
v -1.606079 1.356086 -2.936600
v -1.606061 1.356060 -2.962600
v -2.478057 1.149146 -2.989997
v -1.606079 1.356086 -2.936600
v -1.606079 1.356086 -2.936600
v -2.478075 1.149172 -2.963997
v -2.438095 1.001168 -2.963819
v -1.566081 1.208056 -2.962421
v -1.566099 1.208082 -2.936421
v -2.438095 1.001168 -2.963819
v -1.566099 1.208082 -2.936421
v -1.606079 1.356086 -2.936600
v -2.438095 1.001168 -2.963819
vn 0.2908 -0.0010 -0.9568
vn 0.0058 -0.9998 -0.0186
vn 0.0005 -1.0000 0.0010
vn -0.2908 0.0010 0.9568
vn 0.0001 1.0000 -0.0010
vn 0.9654 0.2608 0.0004
vn -0.2308 0.9730 -0.0012
vn -0.9654 -0.2608 -0.0004
vn -0.0298 -0.0068 0.9995
vn 0.2308 -0.9730 0.0011
vn 0.0298 0.0068 -0.9995
vn -0.2308 0.9730 -0.0011
vt 5.898438 0.000000
vt -0.980469 0.982422
vt 5.900391 0.982422
vt -0.982422 -0.013672
vt -0.923828 0.000000
vt 5.957031 0.000000
vt -0.923828 0.982422
vt 5.957031 0.982422
vt 0.000000 0.982422
vt 0.947266 1.468750
vt 0.000000 1.468750
vt 0.947266 0.982422
vt 0.222656 -0.019531
vt 0.212891 0.986328
vt 0.468750 -0.019531
vt 1.109375 0.472656
vt 0.130859 0.962891
vt 1.109375 0.962891
vt 0.130859 0.472656
vt 0.000000 0.000000
vt 0.947266 0.996094
vt 0.000000 0.990234
vt 0.947266 -0.009766
vt 0.222656 -0.025391
vt 0.468750 -0.025391
vt 0.212891 0.982422
vt 0.000000 0.992188
vt 0.000000 0.986328
s 0
usemtl Shape.011
f 3/1/1 2/2/1 1/3/1
f 6/4/1 5/2/1 4/1/1
f 9/1/2 8/5/2 7/4/2
f 12/1/3 11/6/3 10/5/3
f 15/7/4 14/5/4 13/6/4
f 18/7/4 17/6/4 16/8/4
f 21/2/5 20/8/5 19/3/5
f 24/2/5 23/7/5 22/8/5
f 27/9/6 26/10/6 25/11/6
f 30/9/6 29/12/6 28/10/6
f 33/13/7 32/14/7 31/15/7
f 36/16/8 35/17/8 34/18/8
f 39/16/8 38/19/8 37/17/8
f 42/20/9 41/21/9 40/22/9
f 45/20/9 44/23/9 43/21/9
f 48/9/10 47/24/10 46/25/10
f 51/9/10 50/25/10 49/26/10
f 54/23/11 53/20/11 52/27/11
f 57/13/12 56/28/12 55/14/12
f 60/23/11 59/27/11 58/21/11
