# Blender 4.1.1
# www.blender.org
mtllib Cube.010.mtl
o Cube.010
v -1.000000 53.593925 1.000000
v -1.000000 55.593925 1.000000
v -1.000000 -1.000000 -207.796814
v -1.000000 1.000000 -207.796814
v 76.486465 53.593925 1.000000
v 76.486465 55.593925 1.000000
v 76.486465 -1.000000 -207.796814
v 76.486465 1.000000 -207.796814
vn -1.0000 -0.0000 -0.0000
vn -0.0000 -0.0000 -1.0000
vn 1.0000 -0.0000 -0.0000
vn -0.0000 -0.0000 1.0000
vn -0.0000 -0.9675 0.2530
vn -0.0000 0.9675 -0.2530
vt 0.375000 0.000000
vt 0.625000 0.250000
vt 0.375000 0.250000
vt 0.375000 0.500000
vt 0.625000 0.500000
vt 0.375000 0.750000
vt 0.625000 0.750000
vt 0.375000 1.000000
vt 0.125000 0.750000
vt 0.125000 0.500000
vt 0.875000 0.500000
vt 0.625000 0.000000
vt 0.625000 1.000000
vt 0.875000 0.750000
s 0
usemtl Material.010
f 1/1/1 4/2/1 3/3/1
f 4/2/2 7/4/2 3/3/2
f 8/5/3 5/6/3 7/4/3
f 6/7/4 1/8/4 5/6/4
f 7/4/5 1/9/5 3/10/5
f 4/11/6 6/7/6 8/5/6
f 1/1/1 2/12/1 4/2/1
f 4/2/2 8/5/2 7/4/2
f 8/5/3 6/7/3 5/6/3
f 6/7/4 2/13/4 1/8/4
f 7/4/5 5/6/5 1/9/5
f 4/11/6 2/14/6 6/7/6
