# Blender 4.1.1
# www.blender.org
mtllib Shape_IndexedFaceSet.016.mtl
o Shape_IndexedFaceSet.016
v -2.257078 0.017376 -1.759697
v -0.346417 -0.566525 -1.424774
v -0.184371 -0.886673 -1.552335
v -0.372420 -0.592521 -1.424765
v -1.236480 -1.140407 -1.424811
v -0.184461 -0.886543 -1.424336
v -1.236480 -1.140407 -1.424811
v -1.048522 -1.435429 -1.424380
v -0.184461 -0.886543 -1.424336
v -0.184461 -0.886543 -1.424336
v -1.048522 -1.435429 -1.424380
v -1.048431 -1.435559 -1.552379
v -0.184371 -0.886673 -1.552335
v -0.184461 -0.886543 -1.424336
v -1.048431 -1.435559 -1.552379
v -0.372420 -0.592521 -1.424765
v -0.184461 -0.886543 -1.424336
v -0.184914 -0.885892 -0.784339
v -0.372873 -0.591870 -0.784768
v -0.372420 -0.592521 -1.424765
v -0.184914 -0.885892 -0.784339
v 2.373871 -2.251209 -0.781169
v -0.346417 -0.566525 -1.424774
v 2.373328 -2.250427 -0.013172
v -0.184371 -0.886673 -1.552335
v -0.346417 -0.566525 -1.424774
v 2.373871 -2.251209 -0.781169
v -0.184371 -0.886673 -1.552335
v -1.109962 -0.634079 -2.066235
v -2.257078 0.017376 -1.759697
v -2.257078 0.017376 -1.759697
v -1.109962 -0.634079 -2.066235
v -1.048431 -1.435559 -1.552379
v -1.048431 -1.435559 -1.552379
v -1.109962 -0.634079 -2.066235
v -0.184371 -0.886673 -1.552335
v -0.346417 -0.566525 -1.424774
v -0.346869 -0.565874 -0.784776
v 2.373328 -2.250427 -0.013172
v -0.346417 -0.566525 -1.424774
v -2.257078 0.017376 -1.759697
v -0.346869 -0.565874 -0.784776
v -2.257078 0.017376 -1.759697
v -1.048431 -1.435559 -1.552379
v -2.744834 0.052542 -0.675076
v -1.048431 -1.435559 -1.552379
v -0.853302 -3.906785 -0.781735
v -2.744834 0.052542 -0.675076
v -0.184914 -0.885892 -0.784339
v -0.184371 -0.886673 -1.552335
v 2.373871 -2.251209 -0.781169
v -1.236933 -1.139756 -0.784814
v -1.236480 -1.140407 -1.424811
v -0.372420 -0.592521 -1.424765
v -0.372873 -0.591870 -0.784768
v -1.236933 -1.139756 -0.784814
v -0.372420 -0.592521 -1.424765
v -0.346869 -0.565874 -0.784776
v -2.257078 0.017376 -1.759697
v 1.605641 0.052654 -0.016047
v 2.373328 -2.250427 -0.013172
v -0.346869 -0.565874 -0.784776
v 1.605641 0.052654 -0.016047
v 1.605641 0.052654 -0.016047
v -2.257078 0.017376 -1.759697
v -1.239251 0.819620 -1.386804
v -1.239251 0.819620 -1.386804
v 1.854838 1.584611 -0.017429
v 1.605641 0.052654 -0.016047
v -1.048431 -1.435559 -1.552379
v -1.048974 -1.434778 -0.784383
v -0.853302 -3.906785 -0.781735
v -1.236933 -1.139756 -0.784814
v -1.048974 -1.434778 -0.784383
v -1.048522 -1.435429 -1.424380
v -1.236480 -1.140407 -1.424811
v -1.236933 -1.139756 -0.784814
v -1.048522 -1.435429 -1.424380
v -0.680041 1.734964 -2.937340
v -0.487035 1.802940 -2.937274
v -0.419062 1.609932 -2.937031
v -0.611068 1.541957 -2.937096
v -0.680041 1.734964 -2.937340
v -0.419062 1.609932 -2.937031
vn -0.2913 -0.4777 0.8288
vn 0.0007 -0.0010 -1.0000
vn -0.5362 0.8441 -0.0012
vn 0.8426 0.5386 -0.0000
vn -0.5266 -0.8501 0.0005
vn -0.4899 -0.5252 0.6958
vn -0.4061 -0.8602 0.3085
vn 0.4771 0.5000 0.7228
vn -0.3146 0.4951 0.8099
vn -0.2924 -0.9563 0.0008
vn 0.7120 0.6350 0.2996
vn 0.6220 0.2774 0.7322
vn 0.4708 0.8823 -0.0006
vn -0.5355 0.8445 -0.0012
vn -0.4068 0.1684 0.8979
vn -0.3337 -0.1101 0.9362
vn -0.4102 0.0990 0.9066
vn -0.4179 0.0688 0.9059
vn -0.9969 -0.0789 -0.0006
vn -0.8434 -0.5373 -0.0000
vn -0.8434 -0.5373 -0.0001
vn -0.0007 0.0010 1.0000
vt -0.412109 -0.500000
vt -0.859375 0.000000
vt -4.566406 0.890625
vt 0.000000 0.000000
vt 0.966797 0.308594
vt 0.000000 0.308594
vt 0.966797 0.000000
vt 0.966797 -0.156250
vt 0.000000 -0.156250
vt 0.626953 0.966797
vt 0.626953 0.218750
vt 0.966797 0.218750
vt 0.966797 0.966797
vt 5.957031 0.000000
vt 5.353516 -1.402344
vt 2.468750 0.226562
vt 1.927734 0.912109
vt 1.466797 1.048828
vt 1.886719 1.316406
vt -0.357422 1.109375
vt 2.712891 0.591797
vt 1.589844 2.585938
vt -4.687500 0.966797
vt 0.966797 -0.529297
vt 0.966797 0.716797
vt 0.000000 0.716797
vt 0.000000 1.101562
vt -1.130859 -2.863281
vt 0.000000 -1.029297
vt 2.335938 1.136719
vt -1.578125 -1.628906
vt -1.378906 1.740234
vt 4.958984 0.000000
vt 0.341797 1.396484
vt -0.099609 0.000000
vt 0.626953 0.716797
vt 0.626953 0.000000
vt 0.000000 0.966797
vt 0.964844 0.000000
vt 0.964844 0.966797
s 0
usemtl Shape.016
f 3/1/1 2/2/1 1/3/1
f 6/4/2 5/5/2 4/6/2
f 9/4/2 8/7/2 7/5/2
f 12/8/3 11/7/3 10/4/3
f 15/8/3 14/4/3 13/9/3
f 18/10/4 17/11/4 16/12/4
f 21/10/4 20/12/4 19/13/4
f 24/14/5 23/2/5 22/15/5
f 27/15/6 26/2/6 25/1/6
f 30/16/7 29/17/7 28/18/7
f 33/19/8 32/17/8 31/16/8
f 36/18/9 35/17/9 34/19/9
f 39/14/5 38/20/5 37/2/5
f 42/20/10 41/3/10 40/2/10
f 45/21/11 44/19/11 43/16/11
f 48/21/12 47/22/12 46/19/12
f 51/23/13 50/24/13 49/13/13
f 54/4/14 53/7/14 52/25/14
f 57/4/14 56/25/14 55/26/14
f 60/27/15 59/28/15 58/29/15
f 63/27/16 62/29/16 61/30/16
f 66/31/17 65/28/17 64/27/17
f 69/27/18 68/32/18 67/31/18
f 72/33/19 71/34/19 70/35/19
f 75/7/20 74/25/20 73/36/20
f 78/7/21 77/36/21 76/37/21
f 81/38/22 80/4/22 79/39/22
f 84/38/22 83/39/22 82/40/22
