# Blender 4.1.1
# www.blender.org
mtllib Shape_IndexedFaceSet.024.mtl
o Shape_IndexedFaceSet.024
v -1.961920 1.937455 -1.633442
v -1.719913 2.021423 -1.633359
v -2.011016 1.203466 -1.632731
v -1.719978 1.528428 -1.631859
v -2.011016 1.203466 -1.632731
v -1.719913 2.021423 -1.633359
v -1.719978 1.528428 -1.631859
v -2.034059 1.078508 -1.595620
v -2.011016 1.203466 -1.632731
v -1.648165 1.422667 -1.388702
v -1.719978 1.528428 -1.631859
v 0.439677 2.298745 -1.043138
v -1.648165 1.422667 -1.388702
v -2.034059 1.078508 -1.595620
v -1.719978 1.528428 -1.631859
v -4.447753 2.610265 -3.111854
v -2.231054 1.330138 -2.965009
v -3.305882 1.842142 -3.093278
v -0.487035 1.802940 -2.937274
v 0.440935 2.296936 -2.821130
v 0.612869 1.814917 -2.820520
v -0.419062 1.609932 -2.937031
v -0.487035 1.802940 -2.937274
v 0.612869 1.814917 -2.820520
v -3.305909 1.637144 -3.093069
v -2.487109 0.886175 -2.963736
v -3.510906 1.637170 -3.093212
v 0.612869 1.814917 -2.820520
v -1.547121 1.045081 -2.936243
v -0.419062 1.609932 -2.937031
v -0.419062 1.609932 -2.937031
v -1.547121 1.045081 -2.936243
v -0.611068 1.541957 -2.937096
v 0.440935 2.296936 -2.821130
v -0.487035 1.802940 -2.937274
v -1.719055 1.527100 -2.936852
v -1.719055 1.527100 -2.936852
v -0.487035 1.802940 -2.937274
v -0.680041 1.734964 -2.937340
v -1.547121 1.045081 -2.936243
v -1.719055 1.527100 -2.936852
v -0.680041 1.734964 -2.937340
v -0.611068 1.541957 -2.937096
v -1.547121 1.045081 -2.936243
v -0.680041 1.734964 -2.937340
v -3.305882 1.842142 -3.093278
v -2.231054 1.330138 -2.965009
v -3.305909 1.637144 -3.093069
v -3.305909 1.637144 -3.093069
v -2.231054 1.330138 -2.965009
v -2.487109 0.886175 -2.963736
v -3.559644 4.656911 -4.318310
v -4.003641 4.913019 -4.266880
v -2.229495 5.936733 -4.317684
v -3.510879 1.842169 -3.093421
v -4.447753 2.610265 -3.111854
v -3.305882 1.842142 -3.093278
v -3.510879 1.842169 -3.093421
v -3.510906 1.637170 -3.093212
v -4.447753 2.610265 -3.111854
v -4.447753 2.610265 -3.111854
v -3.510906 1.637170 -3.093212
v -4.701808 2.166301 -3.111580
v -3.510906 1.637170 -3.093212
v -2.487109 0.886175 -2.963736
v -4.701808 2.166301 -3.111580
v -0.455654 4.912516 -4.315408
v -0.455923 2.864529 -4.313327
v -2.229495 5.936733 -4.317684
v -2.229966 2.352759 -4.314043
v -3.559846 3.120922 -4.316751
v -2.229495 5.936733 -4.317684
v -0.455923 2.864529 -4.313327
v -2.229966 2.352759 -4.314043
v -2.229495 5.936733 -4.317684
v -3.559846 3.120922 -4.316751
v -3.559644 4.656911 -4.318310
v -2.229495 5.936733 -4.317684
v -2.229804 6.961365 -3.691727
v -2.229871 6.449368 -3.691207
v -4.890275 5.426155 -3.259022
v -0.008962 5.175940 -3.840365
v 1.022946 4.583812 -3.839045
v -0.026206 2.583821 -3.973743
v -4.890275 5.426155 -3.259022
v -2.229871 6.449368 -3.691207
v -4.447315 5.170101 -3.258454
vn -0.0007 0.0010 1.0000
vn -0.0064 0.0030 1.0000
vn -0.3670 0.3264 0.8711
vn -0.4070 0.7875 0.4627
vn -0.7171 0.5364 0.4451
vn -0.3109 -0.4418 0.8415
vn -0.1051 -0.0362 0.9938
vn -0.1051 -0.0358 0.9938
vn -0.0007 0.1690 0.9856
vn -0.1730 0.3467 0.9219
vn -0.0028 0.0071 1.0000
vn 0.0844 -0.3755 0.9230
vn 0.0015 -0.0054 1.0000
vn 0.0002 0.0013 1.0000
vn -0.1180 0.0010 0.9930
vn -0.1009 0.0610 0.9930
vn 0.0719 -0.0752 0.9946
vn -0.0007 0.0231 0.9997
vn -0.0188 0.0010 0.9998
vn -0.0121 0.0075 0.9999
vn 0.1434 0.3547 0.9239
vn -0.0014 0.0010 1.0000
vn 0.1600 0.0010 0.9871
vn -0.0306 -0.0512 0.9982
vn 0.0952 0.1669 0.9814
vt 0.607422 1.837891
vt 0.134766 0.511719
vt 0.527344 0.648438
vt 0.134766 1.310547
vt 0.644531 2.041016
vt -3.371094 0.060547
vt 0.017578 1.482422
vt 2.712891 0.800781
vt 0.966797 1.630859
vt 4.568359 -0.447266
vt 0.339844 5.832031
vt 0.619141 5.048828
vt 2.126953 5.851562
vt 2.015625 6.164062
vt 7.039062 6.121094
vt 5.375000 7.341797
vt 6.705078 6.121094
vt 3.847656 7.083984
vt 2.328125 6.277344
vt 4.126953 6.300781
vt 2.439453 5.962891
vt 4.958984 6.621094
vt 6.705078 5.789062
vt 4.958984 -0.863281
vt 7.839844 0.800781
vt 7.119141 1.214844
vt 8.560547 4.541016
vt 7.039062 5.789062
vt 8.972656 5.263672
vt 2.078125 4.125000
vt 2.078125 0.800781
vt 7.119141 3.708984
vt 4.958984 4.957031
vt 9.281250 0.000000
vt 4.958984 -1.695312
vt 4.958984 -2.525391
vt 1.378906 4.582031
vt -0.324219 1.332031
vt 1.351562 0.373047
vt 8.560547 0.384766
s 0
usemtl Shape.024
f 3/1/1 2/2/1 1/3/1
f 6/2/2 5/1/2 4/4/2
f 9/1/3 8/5/3 7/4/3
f 12/6/4 11/4/4 10/7/4
f 15/4/5 14/5/5 13/7/5
f 18/8/6 17/9/6 16/10/6
f 21/11/7 20/12/7 19/13/7
f 24/11/8 23/13/8 22/14/8
f 27/15/9 26/16/9 25/17/9
f 30/14/10 29/18/10 28/11/10
f 33/19/11 32/18/11 31/14/11
f 36/20/12 35/13/12 34/12/12
f 39/21/13 38/13/13 37/20/13
f 42/21/14 41/20/14 40/18/14
f 45/21/14 44/18/14 43/19/14
f 48/17/15 47/22/15 46/23/15
f 51/16/16 50/22/16 49/17/16
f 54/24/17 53/25/17 52/26/17
f 57/23/18 56/27/18 55/28/18
f 60/27/19 59/15/19 58/28/19
f 63/29/20 62/15/20 61/27/20
f 66/29/21 65/16/21 64/15/21
f 69/24/1 68/30/1 67/31/1
f 72/24/22 71/32/22 70/33/22
f 75/24/1 74/33/1 73/30/1
f 78/24/22 77/26/22 76/32/22
f 81/34/23 80/35/23 79/36/23
f 84/37/24 83/38/24 82/39/24
f 87/40/25 86/35/25 85/34/25
