# Blender 4.1.1
# www.blender.org
mtllib Shape_IndexedFaceSet.013.mtl
o Shape_IndexedFaceSet.013
v 3.299426 4.438635 -1.760317
v 3.253428 4.461641 -1.760373
v 3.991596 5.809537 -1.761228
v 3.299390 4.438687 -1.709317
v 3.991560 5.809588 -1.710228
v 3.945563 5.832595 -1.710283
v 3.253392 4.461693 -1.709373
v 3.299390 4.438687 -1.709317
v 3.945563 5.832595 -1.710283
v 3.299426 4.438635 -1.760317
v 3.991596 5.809537 -1.761228
v 3.299390 4.438687 -1.709317
v 3.991596 5.809537 -1.761228
v 3.991560 5.809588 -1.710228
v 3.299390 4.438687 -1.709317
v 3.945599 5.832542 -1.761283
v 3.253428 4.461641 -1.760373
v 3.945563 5.832595 -1.710283
v 3.253428 4.461641 -1.760373
v 3.253392 4.461693 -1.709373
v 3.945563 5.832595 -1.710283
v 3.297955 4.439313 -1.094321
v 3.252957 4.462318 -1.094376
v 3.991125 5.810214 -1.095231
v 3.253428 4.461641 -1.760373
v 3.945599 5.832542 -1.761283
v 3.991596 5.809537 -1.761228
v 3.991125 5.810214 -1.095231
v 3.991087 5.810266 -1.044231
v 3.297919 4.439365 -1.043321
v 3.297955 4.439313 -1.094321
v 3.991125 5.810214 -1.095231
v 3.297919 4.439365 -1.043321
v 3.945128 5.833220 -1.095286
v 3.252957 4.462318 -1.094376
v 3.945092 5.833272 -1.044286
v 3.252957 4.462318 -1.094376
v 3.252921 4.462371 -1.043376
v 3.945092 5.833272 -1.044286
v 3.252957 4.462318 -1.094376
v 3.945128 5.833220 -1.095286
v 3.991125 5.810214 -1.095231
v 1.856070 1.582839 -1.758422
v 3.125382 4.095660 -1.760090
v 1.856034 1.582891 -1.707422
v 3.991125 5.810214 -1.095231
v 3.945128 5.833220 -1.095286
v 3.991087 5.810266 -1.044231
v 3.945128 5.833220 -1.095286
v 3.945092 5.833272 -1.044286
v 3.991087 5.810266 -1.044231
v 3.252957 4.462318 -1.094376
v 3.297955 4.439313 -1.094321
v 3.252921 4.462371 -1.043376
v 3.297955 4.439313 -1.094321
v 3.297919 4.439365 -1.043321
v 3.252921 4.462371 -1.043376
v 1.810039 1.605897 -1.707477
v 1.856034 1.582891 -1.707422
v 3.080350 4.118717 -1.709145
v 1.856034 1.582891 -1.707422
v 3.125346 4.095713 -1.709090
v 3.080350 4.118717 -1.709145
v 3.124911 4.096338 -1.094093
v 3.124876 4.096390 -1.043093
v 1.855563 1.583569 -1.041425
v 3.125382 4.095660 -1.760090
v 3.125346 4.095713 -1.709090
v 1.856034 1.582891 -1.707422
v 1.810074 1.605846 -1.758477
v 3.080386 4.118666 -1.760145
v 3.125382 4.095660 -1.760090
v 1.856070 1.582839 -1.758422
v 1.810074 1.605846 -1.758477
v 3.125382 4.095660 -1.760090
v 3.080386 4.118666 -1.760145
v 1.810074 1.605846 -1.758477
v 3.080350 4.118717 -1.709145
v 1.810074 1.605846 -1.758477
v 1.810039 1.605897 -1.707477
v 3.080350 4.118717 -1.709145
v 1.855599 1.583517 -1.092425
v 3.124911 4.096338 -1.094093
v 1.855563 1.583569 -1.041425
v 1.855599 1.583517 -1.092425
v 1.855563 1.583569 -1.041425
v 1.809567 1.606575 -1.041480
v 3.124911 4.096338 -1.094093
v 3.079915 4.119343 -1.094148
v 3.124876 4.096390 -1.043093
v 3.079915 4.119343 -1.094148
v 3.079879 4.119394 -1.043148
v 3.124876 4.096390 -1.043093
v 1.809603 1.606523 -1.092480
v 1.809567 1.606575 -1.041480
v 3.079879 4.119394 -1.043148
v 3.079915 4.119343 -1.094148
v 1.809603 1.606523 -1.092480
v 3.079879 4.119394 -1.043148
v 1.809603 1.606523 -1.092480
v 3.079915 4.119343 -1.094148
v 3.124911 4.096338 -1.094093
v 1.855599 1.583517 -1.092425
v 1.809603 1.606523 -1.092480
v 3.124911 4.096338 -1.094093
v 3.298390 4.438687 -1.709318
v 3.125346 4.095713 -1.709090
v 3.125382 4.095660 -1.760090
v 1.809603 1.606523 -1.092480
v 1.855599 1.583517 -1.092425
v 1.809567 1.606575 -1.041480
v 1.810074 1.605846 -1.758477
v 1.856070 1.582839 -1.758422
v 1.810039 1.605897 -1.707477
v 1.856070 1.582839 -1.758422
v 1.856034 1.582891 -1.707422
v 1.810039 1.605897 -1.707477
v 3.945599 5.832542 -1.761283
v 3.945563 5.832595 -1.710283
v 3.991560 5.809588 -1.710228
v 3.991596 5.809537 -1.761228
v 3.945599 5.832542 -1.761283
v 3.991560 5.809588 -1.710228
v 3.298426 4.438636 -1.760318
v 3.298390 4.438687 -1.709318
v 3.125382 4.095660 -1.760090
v 6.634476 -6.212553 0.376821
v 6.634838 -6.213073 -0.134177
v 6.634811 -6.417071 -0.133970
v 3.253428 4.461641 -1.760373
v 3.298426 4.438636 -1.760318
v 3.080386 4.118666 -1.760145
v 3.298426 4.438636 -1.760318
v 3.125382 4.095660 -1.760090
v 3.080386 4.118666 -1.760145
v 3.253392 4.461693 -1.709373
v 3.253428 4.461641 -1.760373
v 3.080350 4.118717 -1.709145
v 3.253428 4.461641 -1.760373
v 3.080386 4.118666 -1.760145
v 3.080350 4.118717 -1.709145
v 3.298390 4.438687 -1.709318
v 3.253392 4.461693 -1.709373
v 3.125346 4.095713 -1.709090
v 3.253392 4.461693 -1.709373
v 3.080350 4.118717 -1.709145
v 3.125346 4.095713 -1.709090
v 6.634450 -6.416552 0.377028
v 6.634811 -6.417071 -0.133970
v 6.430814 -6.417046 -0.134112
v 6.634450 -6.416552 0.377028
v 6.634476 -6.212553 0.376821
v 6.634811 -6.417071 -0.133970
v 6.430479 -6.212527 0.376679
v 6.430840 -6.213047 -0.134319
v 6.634838 -6.213073 -0.134177
v 6.634476 -6.212553 0.376821
v 6.430479 -6.212527 0.376679
v 6.634838 -6.213073 -0.134177
v 6.430452 -6.416525 0.376886
v 6.430814 -6.417046 -0.134112
v 6.430840 -6.213047 -0.134319
v 6.430479 -6.212527 0.376679
v 6.430452 -6.416525 0.376886
v 6.430840 -6.213047 -0.134319
v 6.430452 -6.416525 0.376886
v 6.634450 -6.416552 0.377028
v 6.430814 -6.417046 -0.134112
v 5.958537 2.918245 -0.834923
v 5.958899 2.917723 -1.346920
v 5.958872 2.712725 -1.346712
v 6.430452 -6.416525 0.376886
v 6.430479 -6.212527 0.376679
v 6.634450 -6.416552 0.377028
v 6.430479 -6.212527 0.376679
v 6.634476 -6.212553 0.376821
v 6.634450 -6.416552 0.377028
v 5.958537 2.918245 -0.834923
v 5.958509 2.713246 -0.834714
v 5.753539 2.918271 -0.835066
v 5.958509 2.713246 -0.834714
v 5.753512 2.713272 -0.834857
v 5.753539 2.918271 -0.835066
v 5.753539 2.918271 -0.835066
v 5.753901 2.917750 -1.347063
v 5.958899 2.917723 -1.346920
v 5.958537 2.918245 -0.834923
v 5.753539 2.918271 -0.835066
v 5.958899 2.917723 -1.346920
v 5.958509 2.713246 -0.834714
v 5.958537 2.918245 -0.834923
v 5.958872 2.712725 -1.346712
v 5.753512 2.713272 -0.834857
v 5.958509 2.713246 -0.834714
v 5.753875 2.712751 -1.346855
v 5.958509 2.713246 -0.834714
v 5.958872 2.712725 -1.346712
v 5.753875 2.712751 -1.346855
v 5.753512 2.713272 -0.834857
v 5.753875 2.712751 -1.346855
v 5.753901 2.917750 -1.347063
v 5.753539 2.918271 -0.835066
v 5.753512 2.713272 -0.834857
v 5.753901 2.917750 -1.347063
v 3.141654 -1.610894 -0.371285
v 3.141891 -1.739259 -0.730154
v 3.013639 -1.738877 -0.371245
v 3.013639 -1.738877 -0.371245
v 3.013386 -1.738513 -0.013246
v 3.141401 -1.610530 -0.013287
v 3.269635 -1.738910 -0.371066
v 3.141654 -1.610894 -0.371285
v 3.269382 -1.738545 -0.013068
v 3.141654 -1.610894 -0.371285
v 3.141401 -1.610530 -0.013287
v 3.269382 -1.738545 -0.013068
v 3.269635 -1.738910 -0.371066
v 3.269382 -1.738545 -0.013068
v 3.141367 -1.866528 -0.013027
v 3.141621 -1.866893 -0.371025
v 3.269635 -1.738910 -0.371066
v 3.141367 -1.866528 -0.013027
v 3.141621 -1.866893 -0.371025
v 3.141367 -1.866528 -0.013027
v 3.013386 -1.738513 -0.013246
v 3.013639 -1.738877 -0.371245
v 3.141621 -1.866893 -0.371025
v 3.013386 -1.738513 -0.013246
v -0.596068 -5.578024 -0.011860
v -0.953996 -5.065982 -0.012630
v -0.596001 -5.066028 -0.012381
v 3.141654 -1.610894 -0.371285
v 3.013639 -1.738877 -0.371245
v 3.141401 -1.610530 -0.013287
v 3.141621 -1.866893 -0.371025
v 3.141891 -1.739259 -0.730154
v 3.269635 -1.738910 -0.371066
v 3.269635 -1.738910 -0.371066
v 3.141891 -1.739259 -0.730154
v 3.141654 -1.610894 -0.371285
v 3.013639 -1.738877 -0.371245
v 3.141891 -1.739259 -0.730154
v 3.141621 -1.866893 -0.371025
v -5.405312 6.451909 -1.595428
v -5.404950 6.451387 -2.107426
v -5.404977 6.246389 -2.107217
v -0.954063 -5.577979 -0.012110
v -0.953996 -5.065982 -0.012630
v -0.596068 -5.578024 -0.011860
v -5.405312 6.451909 -1.595428
v -5.610308 6.451935 -1.595571
v -5.404950 6.451387 -2.107426
v -5.610308 6.451935 -1.595571
v -5.609945 6.451413 -2.107569
v -5.404950 6.451387 -2.107426
v -5.405339 6.246910 -1.595220
v -5.610335 6.246936 -1.595362
v -5.405312 6.451909 -1.595428
v -5.610335 6.246936 -1.595362
v -5.610308 6.451935 -1.595571
v -5.405312 6.451909 -1.595428
v -5.405339 6.246910 -1.595220
v -5.405312 6.451909 -1.595428
v -5.404977 6.246389 -2.107217
v -3.306244 1.842664 -2.581280
v -3.305882 1.842142 -3.093278
v -3.305909 1.637144 -3.093069
v -5.610335 6.246936 -1.595362
v -5.405339 6.246910 -1.595220
v -5.609974 6.246416 -2.107360
v -5.405339 6.246910 -1.595220
v -5.404977 6.246389 -2.107217
v -5.609974 6.246416 -2.107360
v -5.610308 6.451935 -1.595571
v -5.610335 6.246936 -1.595362
v -5.609945 6.451413 -2.107569
v -5.610335 6.246936 -1.595362
v -5.609974 6.246416 -2.107360
v -5.609945 6.451413 -2.107569
v -3.306271 1.637665 -2.581072
v -3.511268 1.637691 -2.581215
v -3.511241 1.842689 -2.581423
v -3.306244 1.842664 -2.581280
v -3.306271 1.637665 -2.581072
v -3.511241 1.842689 -2.581423
v -3.306244 1.842664 -2.581280
v -3.511241 1.842689 -2.581423
v -3.305882 1.842142 -3.093278
v -3.306271 1.637665 -2.581072
v -3.306244 1.842664 -2.581280
v -3.305909 1.637144 -3.093069
v -3.511268 1.637691 -2.581215
v -3.306271 1.637665 -2.581072
v -3.510906 1.637170 -3.093212
v -3.306271 1.637665 -2.581072
v -3.305909 1.637144 -3.093069
v -3.510906 1.637170 -3.093212
v -3.511241 1.842689 -2.581423
v -3.511268 1.637691 -2.581215
v -3.510879 1.842169 -3.093421
v -3.511268 1.637691 -2.581215
v -3.510906 1.637170 -3.093212
v -3.510879 1.842169 -3.093421
v -3.511241 1.842689 -2.581423
v -3.510879 1.842169 -3.093421
v -3.305882 1.842142 -3.093278
v -3.613724 -1.843271 -2.577750
v -3.613362 -1.843792 -3.089747
v -3.409364 -1.843818 -3.089605
v -3.409754 -2.048295 -2.577399
v -3.613751 -2.048270 -2.577541
v -3.613724 -1.843271 -2.577750
v -3.409727 -1.843297 -2.577608
v -3.409754 -2.048295 -2.577399
v -3.613724 -1.843271 -2.577750
v -3.613751 -2.048270 -2.577541
v -3.613389 -2.048791 -3.089539
v -3.613362 -1.843792 -3.089747
v -3.613724 -1.843271 -2.577750
v -3.613751 -2.048270 -2.577541
v -3.613362 -1.843792 -3.089747
v -3.613751 -2.048270 -2.577541
v -3.409754 -2.048295 -2.577399
v -3.613389 -2.048791 -3.089539
v -3.409754 -2.048295 -2.577399
v -3.409392 -2.048817 -3.089397
v -3.613389 -2.048791 -3.089539
v -3.409754 -2.048295 -2.577399
v -3.409727 -1.843297 -2.577608
v -3.409392 -2.048817 -3.089397
v -3.409727 -1.843297 -2.577608
v -3.613724 -1.843271 -2.577750
v -3.409364 -1.843818 -3.089605
v -3.409727 -1.843297 -2.577608
v -3.409364 -1.843818 -3.089605
v -3.409392 -2.048817 -3.089397
vn -0.0007 0.0010 1.0000
vn 0.0007 -0.0010 -1.0000
vn -0.8927 0.4507 -0.0011
vn 0.8927 -0.4507 0.0011
vn -0.8924 0.4512 -0.0011
vn -0.8926 0.4509 -0.0011
vn -0.4473 -0.8944 0.0006
vn 0.4552 0.8904 -0.0006
vn 0.8924 -0.4512 0.0011
vn 0.4473 0.8944 -0.0006
vn -0.4552 -0.8904 0.0006
vn -0.8928 0.4505 -0.0011
vn 0.4474 0.8944 -0.0006
vn 1.0000 -0.0001 0.0007
vn 0.8928 -0.4504 0.0011
vn -0.0001 -1.0000 0.0010
vn 0.0001 1.0000 -0.0010
vn -1.0000 0.0001 -0.0007
vn 0.6854 -0.6855 0.2456
vn 0.7070 -0.7072 0.0012
vn -0.7072 -0.7070 0.0002
vn -0.7070 0.7072 -0.0012
vn 0.7072 0.7070 -0.0002
vn -0.6857 0.6860 0.2433
vn -0.6859 -0.6853 0.2447
vn 0.6856 0.6858 0.2443
vt 11.945312 0.568359
vt 0.000000 0.966797
vt 0.000000 0.568359
vt 11.945312 0.966797
vt 0.966797 1.363281
vt -11.007812 0.966797
vt 0.966797 0.966797
vt -11.007812 1.363281
vt 21.925781 1.363281
vt 21.925781 0.966797
vt 0.966797 13.939453
vt 0.000000 12.941406
vt 0.966797 12.941406
vt 0.000000 13.939453
vt 0.367188 0.367188
vt 0.000000 0.000000
vt 0.367188 0.000000
vt 0.000000 0.367188
vt 0.966797 -20.990234
vt 0.568359 0.966797
vt 0.568359 -20.990234
vt 0.000000 1.363281
vt -20.988281 0.568359
vt 0.966797 0.568359
vt -20.988281 0.966797
vt 2.962891 0.000000
vt 2.962891 0.367188
vt 0.966797 0.000000
vt 0.966797 2.462891
vt 2.962891 0.568359
vt 2.962891 0.966797
vt 0.966797 2.460938
vt 0.000000 2.462891
vt 0.000000 2.460938
vt 0.458984 -1.035156
vt 0.949219 0.966797
vt 0.966797 1.962891
vt -0.013672 1.962891
vt -0.013672 0.023438
vt 0.949219 1.908203
vt 0.949219 0.000000
vt 0.000000 1.908203
vt 0.966797 0.023438
vt -0.013672 0.966797
vt 0.476562 -1.035156
vt 0.966797 -0.261719
vt 0.000000 -0.261719
vt 0.000000 1.962891
vt 0.000000 2.193359
vt 0.966797 2.193359
s 0
usemtl Shape.013
f 3/1/1 2/2/1 1/3/1
f 6/4/2 5/1/2 4/3/2
f 9/4/2 8/3/2 7/2/2
f 12/5/3 11/6/3 10/7/3
f 15/5/3 14/8/3 13/6/3
f 18/4/4 17/3/4 16/1/4
f 21/4/4 20/2/4 19/3/4
f 24/1/1 23/2/1 22/3/1
f 27/1/1 26/4/1 25/2/1
f 30/5/5 29/8/5 28/6/5
f 33/5/5 32/6/5 31/7/5
f 36/4/4 35/3/4 34/1/4
f 39/4/4 38/2/4 37/3/4
f 42/1/1 41/4/1 40/2/1
f 45/9/6 44/2/6 43/10/6
f 48/11/7 47/12/7 46/13/7
f 51/11/7 50/14/7 49/12/7
f 54/15/8 53/16/8 52/17/8
f 57/15/8 56/18/8 55/16/8
f 60/19/2 59/20/2 58/7/2
f 63/19/2 62/21/2 61/20/2
f 66/9/6 65/22/6 64/2/6
f 69/9/6 68/22/6 67/2/6
f 72/21/1 71/19/1 70/7/1
f 75/21/1 74/7/1 73/20/1
f 78/7/9 77/23/9 76/24/9
f 81/7/9 80/25/9 79/23/9
f 84/9/6 83/2/6 82/10/6
f 87/15/10 86/18/10 85/16/10
f 90/15/11 89/16/11 88/17/11
f 93/15/11 92/18/11 91/16/11
f 96/7/9 95/25/9 94/23/9
f 99/7/9 98/23/9 97/24/9
f 102/21/1 101/19/1 100/7/1
f 105/21/1 104/7/1 103/20/1
f 108/26/12 107/27/12 106/18/12
f 111/15/10 110/16/10 109/17/10
f 114/15/13 113/16/13 112/17/13
f 117/15/10 116/18/10 115/16/10
f 120/7/7 119/2/7 118/16/7
f 123/7/7 122/16/7 121/28/7
f 126/26/12 125/18/12 124/16/12
f 129/16/14 128/28/14 127/29/14
f 132/26/1 131/18/1 130/16/1
f 135/26/1 134/27/1 133/18/1
f 138/18/15 137/26/15 136/27/15
f 141/18/15 140/16/15 139/26/15
f 144/2/2 143/30/2 142/31/2
f 147/2/2 146/3/2 145/30/2
f 150/16/16 149/28/16 148/32/16
f 153/16/14 152/29/14 151/33/14
f 156/16/17 155/28/17 154/29/17
f 159/16/17 158/29/17 157/33/17
f 162/16/18 161/28/18 160/32/18
f 165/16/18 164/32/18 163/34/18
f 168/16/16 167/32/16 166/34/16
f 171/16/14 170/28/14 169/29/14
f 174/7/1 173/16/1 172/28/1
f 177/7/1 176/2/1 175/16/1
f 180/16/1 179/7/1 178/2/1
f 183/16/1 182/28/1 181/7/1
f 186/16/17 185/28/17 184/29/17
f 189/16/17 188/29/17 187/33/17
f 192/16/14 191/29/14 190/33/14
f 195/16/16 194/32/16 193/34/16
f 198/16/16 197/28/16 196/32/16
f 201/16/18 200/28/18 199/32/18
f 204/16/18 203/32/18 202/34/18
f 207/2/19 206/35/19 205/36/19
f 210/37/20 209/38/20 208/39/20
f 213/40/21 212/16/21 211/41/21
f 216/40/21 215/42/21 214/16/21
f 219/40/22 218/42/22 217/16/22
f 222/40/22 221/16/22 220/41/22
f 225/37/23 224/38/23 223/39/23
f 228/37/23 227/39/23 226/43/23
f 231/2/1 230/16/1 229/7/1
f 234/37/20 233/39/20 232/43/20
f 237/44/24 236/45/24 235/7/24
f 240/2/25 239/35/25 238/36/25
f 243/2/26 242/35/26 241/36/26
f 246/16/14 245/28/14 244/29/14
f 249/7/1 248/16/1 247/28/1
f 252/16/17 251/29/17 250/33/17
f 255/16/17 254/28/17 253/29/17
f 258/16/1 257/7/1 256/2/1
f 261/16/1 260/28/1 259/7/1
f 264/16/14 263/29/14 262/33/14
f 267/46/14 266/47/14 265/48/14
f 270/16/16 269/29/16 268/33/16
f 273/16/16 272/28/16 271/29/16
f 276/16/18 275/29/18 274/33/18
f 279/16/18 278/28/18 277/29/18
f 282/28/1 281/7/1 280/2/1
f 285/28/1 284/2/1 283/16/1
f 288/28/17 287/49/17 286/50/17
f 291/46/14 290/48/14 289/37/14
f 294/16/16 293/50/16 292/49/16
f 297/16/16 296/28/16 295/50/16
f 300/47/18 299/37/18 298/48/18
f 303/47/18 302/46/18 301/37/18
f 306/28/17 305/16/17 304/49/17
f 309/16/17 308/28/17 307/29/17
f 312/2/1 311/16/1 310/28/1
f 315/2/1 314/28/1 313/7/1
f 318/16/18 317/28/18 316/29/18
f 321/16/18 320/29/18 319/34/18
f 324/16/16 323/29/16 322/34/16
f 327/16/16 326/28/16 325/29/16
f 330/16/14 329/29/14 328/34/14
f 333/16/17 332/29/17 331/34/17
f 336/16/14 335/28/14 334/29/14
