# Blender 4.1.1
# www.blender.org
mtllib Cube.mtl
o Cube
v 19.554592 1.000000 -7.696346
v 19.554592 -1.000000 -7.696346
v 19.554592 1.000000 60.845345
v 19.554592 -1.000000 60.845345
v -100.844772 1.000000 -7.696346
v -100.844772 -1.000000 -7.696346
v -100.844772 1.000000 60.845345
v -100.844772 -1.000000 60.845345
v -1.569402 3.347217 9.758855
v -1.569402 4.372643 9.758855
v -1.569402 3.347217 2.013778
v -1.569402 4.372643 2.013778
v 5.289780 3.347217 9.758855
v 5.289780 4.372643 9.758855
v 5.289780 3.347217 2.013778
v 5.289780 4.372643 2.013778
vn -0.0000 1.0000 -0.0000
vn -0.0000 -0.0000 1.0000
vn -1.0000 -0.0000 -0.0000
vn -0.0000 -1.0000 -0.0000
vn 1.0000 -0.0000 -0.0000
vn -0.0000 -0.0000 -1.0000
vt 0.875000 0.500000
vt 0.625000 0.750000
vt 0.625000 0.500000
vt 0.375000 1.000000
vt 0.375000 0.750000
vt 0.625000 0.000000
vt 0.375000 0.250000
vt 0.375000 0.000000
vt 0.375000 0.500000
vt 0.125000 0.750000
vt 0.125000 0.500000
vt 0.625000 0.250000
vt 0.875000 0.750000
vt 0.625000 1.000000
s 0
usemtl Material
f 5/1/1 3/2/1 1/3/1
f 3/2/2 8/4/2 4/5/2
f 7/6/3 6/7/3 8/8/3
f 2/9/4 8/10/4 6/11/4
f 1/3/5 4/5/5 2/9/5
f 5/12/6 2/9/6 6/7/6
f 10/6/3 11/7/3 9/8/3
f 12/12/6 15/9/6 11/7/6
f 16/3/5 13/5/5 15/9/5
f 14/2/2 9/4/2 13/5/2
f 15/9/4 9/10/4 11/11/4
f 12/1/1 14/2/1 16/3/1
f 5/1/1 7/13/1 3/2/1
f 3/2/2 7/14/2 8/4/2
f 7/6/3 5/12/3 6/7/3
f 2/9/4 4/5/4 8/10/4
f 1/3/5 3/2/5 4/5/5
f 5/12/6 1/3/6 2/9/6
f 10/6/3 12/12/3 11/7/3
f 12/12/6 16/3/6 15/9/6
f 16/3/5 14/2/5 13/5/5
f 14/2/2 10/14/2 9/4/2
f 15/9/4 13/5/4 9/10/4
f 12/1/1 10/13/1 14/2/1
