# Blender 4.1.1
# www.blender.org
mtllib Shape_IndexedFaceSet.023.mtl
o Shape_IndexedFaceSet.023
v 0.070362 -6.090836 -0.727873
v 0.069855 -6.090106 -0.010876
v 0.070295 -6.602831 -0.727353
v 3.653479 -0.970600 -0.013580
v 3.654021 -0.971381 -0.781577
v 3.909441 -1.226631 -0.013142
v 3.654021 -0.971381 -0.781577
v 3.909984 -1.227412 -0.781138
v 3.909441 -1.226631 -0.013142
v 0.069855 -6.090106 -0.010876
v 1.758831 -6.091321 -0.009698
v 1.758764 -6.602318 -0.009179
v 0.069788 -6.602102 -0.010356
v 0.069855 -6.090106 -0.010876
v 1.758764 -6.602318 -0.009179
v 1.758909 -6.602527 -0.214178
v 1.758764 -6.602318 -0.009179
v 1.758831 -6.091321 -0.009698
v 1.758976 -6.090530 -0.214698
v 1.758909 -6.602527 -0.214178
v 1.758831 -6.091321 -0.009698
v 3.518177 4.330379 -0.019060
v 4.090131 4.044309 -0.018371
v 2.602948 2.498509 -0.017837
v 0.069855 -6.090106 -0.010876
v 0.069788 -6.602102 -0.010356
v 0.070295 -6.602831 -0.727353
v 2.373328 -2.250427 -0.013172
v 2.629291 -2.506458 -0.012734
v 2.629834 -2.507240 -0.780730
v 2.373871 -2.251209 -0.781169
v 2.373328 -2.250427 -0.013172
v 2.629834 -2.507240 -0.780730
v 3.653479 -0.970600 -0.013580
v 3.909441 -1.226631 -0.013142
v 2.629291 -2.506458 -0.012734
v 2.373328 -2.250427 -0.013172
v 3.653479 -0.970600 -0.013580
v 2.629291 -2.506458 -0.012734
v 4.090131 4.044309 -0.018371
v 3.174902 2.211438 -0.017146
v 2.602948 2.498509 -0.017837
vn -1.0000 0.0001 -0.0007
vn 0.7072 0.7070 -0.0002
vn -0.0007 0.0010 1.0000
vn 1.0000 -0.0001 0.0007
vn -0.7072 -0.7070 0.0002
vt -0.695312 0.035156
vt -1.359375 0.966797
vt -1.359375 0.035156
vt 0.000000 0.966797
vt 0.439453 0.314453
vt 0.439453 0.966797
vt -0.029297 0.328125
vt -0.927734 1.214844
vt -0.927734 0.718750
vt 0.716797 0.716797
vt 0.716797 1.214844
vt 1.964844 0.966797
vt -0.029297 0.970703
vt 0.000000 0.173828
vt 1.964844 0.167969
vt -1.750000 -7.654297
vt -3.199219 -9.162109
vt -2.640625 -9.439453
vt -0.695312 0.966797
vt 0.439453 0.000000
vt 0.439453 0.900391
vt 0.000000 0.900391
vt 0.000000 0.000000
vt -1.775391 -2.775391
vt -3.023438 -4.023438
vt -2.773438 -4.273438
vt -1.527344 -3.025391
vt -2.306641 -7.375000
s 0
usemtl Shape.023
f 3/1/1 2/2/1 1/3/1
f 6/4/2 5/5/2 4/6/2
f 9/4/2 8/7/2 7/5/2
f 12/8/3 11/9/3 10/10/3
f 15/8/3 14/10/3 13/11/3
f 18/12/4 17/13/4 16/14/4
f 21/12/4 20/14/4 19/15/4
f 24/16/3 23/17/3 22/18/3
f 27/1/1 26/19/1 25/2/1
f 30/20/5 29/21/5 28/22/5
f 33/20/5 32/22/5 31/23/5
f 36/24/3 35/25/3 34/26/3
f 39/24/3 38/26/3 37/27/3
f 42/16/3 41/28/3 40/17/3
