# Blender 4.1.1
# www.blender.org
mtllib Shape_IndexedFaceSet.010.mtl
o Shape_IndexedFaceSet.010
v -0.953520 -5.578760 -0.780106
v 0.070398 -6.090887 -0.778873
v 0.070331 -6.602883 -0.778353
v -0.953587 -6.090756 -0.779586
v -0.953520 -5.578760 -0.780106
v 0.070331 -6.602883 -0.778353
v -1.465513 -5.578695 -0.780463
v -0.953520 -5.578760 -0.780106
v -0.953587 -6.090756 -0.779586
v 2.373803 -2.763205 -0.780649
v 2.373871 -2.251209 -0.781169
v 2.629834 -2.507240 -0.780730
v 2.373003 -6.090660 -0.265270
v 2.372936 -6.602656 -0.264750
v 1.759012 -6.089581 -0.265699
v 1.759012 -6.089581 -0.265699
v 2.372936 -6.602656 -0.264750
v 1.758945 -6.602578 -0.265178
v 3.396935 -6.090713 -0.187557
v 2.372936 -6.602656 -0.264750
v 2.373003 -6.090660 -0.265270
v 3.396868 -6.602709 -0.187037
v 2.372936 -6.602656 -0.264750
v 3.396935 -6.090713 -0.187557
v 5.636786 -6.026816 -0.007061
v 5.636710 -6.602812 -0.006477
v 4.420794 -6.090661 -0.007844
v 5.636710 -6.602812 -0.006477
v 4.420727 -6.602657 -0.007324
v 4.420794 -6.090661 -0.007844
v 4.420794 -6.090661 -0.007844
v 4.420727 -6.602657 -0.007324
v 3.396935 -6.090713 -0.187557
v 4.420727 -6.602657 -0.007324
v 3.396868 -6.602709 -0.187037
v 3.396935 -6.090713 -0.187557
v -0.953520 -5.578760 -0.780106
v -1.465513 -5.578695 -0.780463
v -0.953453 -5.066764 -0.780627
v -1.465513 -5.578695 -0.780463
v -1.465446 -5.066699 -0.780983
v -0.953453 -5.066764 -0.780627
v -0.441392 -4.554833 -0.780790
v 2.373871 -2.251209 -0.781169
v 2.373803 -2.763205 -0.780649
v -0.441325 -4.042837 -0.781310
v 2.373871 -2.251209 -0.781169
v -0.441392 -4.554833 -0.780790
v -0.953453 -5.066764 -0.780627
v -1.465446 -5.066699 -0.780983
v -0.441392 -4.554833 -0.780790
v -1.465446 -5.066699 -0.780983
v -0.441325 -4.042837 -0.781310
v -0.441392 -4.554833 -0.780790
v 3.654021 -0.971381 -0.781577
v 3.936053 -0.691420 -0.781665
v 3.909984 -1.227412 -0.781138
v 3.936053 -0.691420 -0.781665
v 4.207015 -0.961452 -0.781202
v 3.909984 -1.227412 -0.781138
vn -0.0007 0.0010 1.0000
vn -0.0757 0.0010 0.9971
vn -0.1729 0.0010 0.9849
vt 0.966797 1.449219
vt -0.025391 0.955078
vt -0.025391 -1.525391
vt 0.966797 -1.029297
vt 0.966797 1.962891
vt 0.000000 0.966797
vt 0.966797 0.000000
vt 0.996094 1.222656
vt -0.011719 1.222656
vt 0.996094 0.216797
vt 0.000000 -1.226562
vt 0.000000 0.000000
vt 0.966797 -1.226562
vt 0.000000 1.968750
vt 0.966797 1.968750
vt 0.058594 0.000000
vt 0.966797 2.121094
vt -0.052734 2.121094
vt 0.966797 3.984375
vt 0.000000 3.984375
vt 0.966797 0.966797
vt 1.005859 1.285156
vt 0.000000 1.976562
vt 1.005859 -7.708984
vt 0.000000 -7.017578
vt 0.976562 0.996094
vt 0.000000 -2.027344
vt 0.976562 -1.019531
vt 0.000000 2.003906
vt -0.089844 -0.033203
s 0
usemtl Shape.010
f 3/1/1 2/2/1 1/3/1
f 6/1/1 5/3/1 4/4/1
f 9/5/1 8/6/1 7/7/1
f 12/8/1 11/9/1 10/10/1
f 15/11/1 14/7/1 13/12/1
f 18/13/1 17/7/1 16/11/1
f 21/12/2 20/7/2 19/14/2
f 24/14/2 23/7/2 22/15/2
f 27/16/1 26/17/1 25/18/1
f 30/16/1 29/7/1 28/17/1
f 33/14/3 32/19/3 31/20/3
f 36/14/3 35/15/3 34/19/3
f 39/21/1 38/12/1 37/7/1
f 42/21/1 41/6/1 40/12/1
f 45/22/1 44/23/1 43/24/1
f 48/24/1 47/23/1 46/25/1
f 51/26/1 50/27/1 49/28/1
f 54/26/1 53/29/1 52/27/1
f 57/6/1 56/7/1 55/21/1
f 60/6/1 59/30/1 58/7/1
