# Blender 4.1.1
# www.blender.org
mtllib Tutorial.013.mtl
o Tutorial.013
v -0.401563 -0.138553 6.632825
v -0.401563 8.576882 6.632825
v -0.388219 -0.138553 -7.144059
v -0.388219 8.576882 -7.144059
v 0.395593 -0.138553 6.632825
v 0.395593 8.576882 6.632825
v 0.408936 -0.138553 -7.144059
v 0.408936 8.576882 -7.144059
vn -1.0000 -0.0000 -0.0010
vn -0.0000 -0.0000 -1.0000
vn 1.0000 -0.0000 0.0010
vn -0.0000 -0.0000 1.0000
vn -0.0000 -1.0000 -0.0000
vn -0.0000 1.0000 -0.0000
vt 0.625000 0.000000
vt 0.375000 0.250000
vt 0.375000 0.000000
vt 0.625000 0.250000
vt 0.375000 0.500000
vt 0.625000 0.500000
vt 0.375000 0.750000
vt 0.625000 0.750000
vt 0.375000 1.000000
vt 0.125000 0.500000
vt 0.125000 0.750000
vt 0.875000 0.500000
vt 0.625000 1.000000
vt 0.875000 0.750000
s 0
usemtl Material.007
f 2/1/1 3/2/1 1/3/1
f 4/4/2 7/5/2 3/2/2
f 8/6/3 5/7/3 7/5/3
f 6/8/4 1/9/4 5/7/4
f 3/10/5 5/7/5 1/11/5
f 4/12/6 6/8/6 8/6/6
f 2/1/1 4/4/1 3/2/1
f 4/4/2 8/6/2 7/5/2
f 8/6/3 6/8/3 5/7/3
f 6/8/4 2/13/4 1/9/4
f 3/10/5 7/5/5 5/7/5
f 4/12/6 2/14/6 6/8/6
