# Blender 4.1.1
# www.blender.org
mtllib Shape_IndexedFaceSet.025.mtl
o Shape_IndexedFaceSet.025
v -2.197107 0.188441 -1.687829
v -2.220073 0.064371 -1.759719
v -5.290667 2.051603 -1.907877
v -2.230706 6.578592 -2.487342
v 1.194094 4.642022 -2.626988
v -2.230687 6.450541 -2.538212
v -2.230687 6.450541 -2.538212
v 1.194094 4.642022 -2.626988
v 1.022125 4.584992 -2.679050
v -2.230619 6.962538 -2.538732
v 1.538103 4.754977 -2.626863
v -2.230673 6.834591 -2.487602
v 1.538103 4.754977 -2.626863
v 1.194094 4.642022 -2.626988
v -2.230673 6.834591 -2.487602
v -2.230673 6.834591 -2.487602
v 1.194094 4.642022 -2.626988
v -2.230706 6.578592 -2.487342
v 1.710145 4.810904 -2.677800
v 1.538103 4.754977 -2.626863
v -2.230619 6.962538 -2.538732
v 1.538103 4.754977 -2.626863
v 1.710145 4.810904 -2.677800
v 0.673963 3.039995 -2.728723
v -2.220073 0.064371 -1.759719
v -2.197107 0.188441 -1.687829
v -1.239251 0.819620 -1.386804
v -2.197107 0.188441 -1.687829
v -2.034059 1.078508 -1.595620
v -1.239251 0.819620 -1.386804
v 0.308024 3.224993 -2.775165
v 1.022125 4.584992 -2.679050
v 1.194094 4.642022 -2.626988
v 0.421981 3.167029 -2.726027
v 0.308024 3.224993 -2.775165
v 1.194094 4.642022 -2.626988
v 1.194094 4.642022 -2.626988
v 1.538103 4.754977 -2.626863
v 0.421981 3.167029 -2.726027
v 1.538103 4.754977 -2.626863
v 0.673963 3.039995 -2.728723
v 0.421981 3.167029 -2.726027
v 0.671972 2.753930 -2.794434
v 0.440935 2.296936 -2.821130
v 0.323909 2.369003 -2.769285
v 1.710145 4.810904 -2.677800
v 0.786992 2.982927 -2.781586
v 0.673963 3.039995 -2.728723
v -0.027021 2.584994 -2.820749
v 0.189009 2.997993 -2.792018
v 0.089931 2.513032 -2.769594
v 0.089931 2.513032 -2.769594
v 0.189009 2.997993 -2.792018
v 0.303963 2.940031 -2.740879
v 0.303963 2.940031 -2.740879
v 0.554945 2.812998 -2.742575
v 0.089931 2.513032 -2.769594
v 0.554945 2.812998 -2.742575
v 0.323909 2.369003 -2.769285
v 0.089931 2.513032 -2.769594
v 0.554945 2.812998 -2.742575
v 0.671972 2.753930 -2.794434
v 0.323909 2.369003 -2.769285
v -4.004725 2.866206 -3.111805
v -2.231040 1.714187 -2.914399
v -4.114769 2.802274 -3.060817
v -3.670926 3.057043 -4.212763
v -3.559644 4.656911 -4.318310
v -3.559846 3.120922 -4.316751
v -3.892940 2.929072 -4.212788
v -4.003641 4.913019 -4.266880
v -3.559644 4.656911 -4.318310
v -3.670926 3.057043 -4.212763
v -3.892940 2.929072 -4.212788
v -3.559644 4.656911 -4.318310
v -4.003641 4.913019 -4.266880
v -3.892940 2.929072 -4.212788
v -4.003910 2.865033 -4.264800
v 0.439677 2.298745 -1.043138
v 1.855563 1.583569 -1.041425
v -1.239251 0.819620 -1.386804
v -2.034059 1.078508 -1.595620
v -1.648165 1.422667 -1.388702
v -1.239251 0.819620 -1.386804
v -2.231040 1.714187 -2.914399
v -2.231073 1.458189 -2.914140
v -4.114769 2.802274 -3.060817
v -2.230987 1.842134 -2.965529
v -2.231040 1.714187 -2.914399
v -4.004725 2.866206 -3.111805
v -4.336782 2.674303 -3.060842
v -2.231073 1.458189 -2.914140
v -2.231054 1.330138 -2.965009
v -4.114769 2.802274 -3.060817
v -2.231073 1.458189 -2.914140
v -4.336782 2.674303 -3.060842
v -4.447753 2.610265 -3.111854
v -4.336782 2.674303 -3.060842
v -2.231054 1.330138 -2.965009
v -4.004354 4.914045 -3.257885
v -4.114769 2.802274 -3.060817
v -4.114381 4.978112 -3.207026
v -4.114381 4.978112 -3.207026
v -4.336782 2.674303 -3.060842
v -4.336361 5.106139 -3.207312
v -4.114769 2.802274 -3.060817
v -4.336782 2.674303 -3.060842
v -4.114381 4.978112 -3.207026
v -2.229871 6.449368 -3.691207
v -2.229925 6.321423 -3.639077
v -4.447315 5.170101 -3.258454
v -4.004725 2.866206 -3.111805
v -4.114769 2.802274 -3.060817
v -4.004354 4.914045 -3.257885
v -4.336361 5.106139 -3.207312
v -4.336782 2.674303 -3.060842
v -4.447753 2.610265 -3.111854
v -4.447315 5.170101 -3.258454
v -4.336361 5.106139 -3.207312
v -4.447753 2.610265 -3.111854
v -4.447315 5.170101 -3.258454
v -2.229925 6.321423 -3.639077
v -4.336361 5.106139 -3.207312
v -4.336361 5.106139 -3.207312
v -2.229959 6.065424 -3.638817
v -4.114381 4.978112 -3.207026
v -2.229925 6.321423 -3.639077
v -2.229959 6.065424 -3.638817
v -4.336361 5.106139 -3.207312
v -0.456163 2.864874 -3.974329
v -0.346026 4.977044 -3.780398
v -0.346210 2.800914 -3.922188
v -2.229959 6.065424 -3.638817
v -2.229939 5.937371 -3.690687
v -4.114381 4.978112 -3.207026
v -4.114381 4.978112 -3.207026
v -2.229939 5.937371 -3.690687
v -4.004354 4.914045 -3.257885
v -2.229871 6.449368 -3.691207
v -0.124012 5.105016 -3.780374
v -2.229925 6.321423 -3.639077
v -0.124012 5.105016 -3.780374
v -0.346026 4.977044 -3.780398
v -2.229925 6.321423 -3.639077
v -2.229925 6.321423 -3.639077
v -0.346026 4.977044 -3.780398
v -2.229959 6.065424 -3.638817
v -0.008962 5.175940 -3.840365
v -0.124012 5.105016 -3.780374
v -2.229871 6.449368 -3.691207
v -2.229959 6.065424 -3.638817
v -0.346026 4.977044 -3.780398
v -0.455996 4.913006 -3.832410
v -2.229939 5.937371 -3.690687
v -2.229959 6.065424 -3.638817
v -0.455996 4.913006 -3.832410
v -2.230158 2.225012 -4.066915
v -0.124230 2.672886 -3.921903
v -2.230191 1.969013 -4.066654
v -0.346210 2.800914 -3.922188
v -0.124012 5.105016 -3.780374
v -0.124230 2.672886 -3.921903
v -0.455996 4.913006 -3.832410
v -0.346026 4.977044 -3.780398
v -0.456163 2.864874 -3.974329
v -0.346026 4.977044 -3.780398
v -0.124012 5.105016 -3.780374
v -0.346210 2.800914 -3.922188
v -0.124012 5.105016 -3.780374
v -0.008962 5.175940 -3.840365
v -0.124230 2.672886 -3.921903
v -0.124230 2.672886 -3.921903
v -0.008962 5.175940 -3.840365
v -0.026206 2.583821 -3.973743
v -0.456163 2.864874 -3.974329
v -0.346210 2.800914 -3.922188
v -2.230158 2.225012 -4.066915
v -2.230104 2.352958 -4.118044
v -0.456163 2.864874 -3.974329
v -2.230158 2.225012 -4.066915
v -0.346210 2.800914 -3.922188
v -0.124230 2.672886 -3.921903
v -2.230158 2.225012 -4.066915
v -5.424033 5.811395 -2.106789
v -2.230673 6.834591 -2.487602
v -5.290082 5.731430 -2.055614
v -2.230191 1.969013 -4.066654
v -0.124230 2.672886 -3.921903
v -0.026206 2.583821 -3.973743
v -2.230172 1.840962 -4.117524
v -2.230191 1.969013 -4.066654
v -0.026206 2.583821 -3.973743
v -3.559847 3.120924 -4.315750
v -2.230158 2.225012 -4.066915
v -3.670926 3.057043 -4.212763
v -2.230158 2.225012 -4.066915
v -2.230191 1.969013 -4.066654
v -3.670926 3.057043 -4.212763
v -3.670926 3.057043 -4.212763
v -2.230191 1.969013 -4.066654
v -3.892940 2.929072 -4.212788
v -2.230104 2.352958 -4.118044
v -2.230158 2.225012 -4.066915
v -3.559847 3.120924 -4.315750
v -3.892940 2.929072 -4.212788
v -2.230191 1.969013 -4.066654
v -2.230172 1.840962 -4.117524
v -4.003910 2.865033 -4.264800
v -3.892940 2.929072 -4.212788
v -2.230172 1.840962 -4.117524
v -4.559156 5.235340 -2.054601
v -4.448131 5.171274 -2.105459
v -4.559611 2.547505 -1.907871
v -2.230619 6.962538 -2.538732
v -2.230673 6.834591 -2.487602
v -5.424033 5.811395 -2.106789
v -2.230706 6.578592 -2.487342
v -2.230687 6.450541 -2.538212
v -4.559156 5.235340 -2.054601
v -4.559156 5.235340 -2.054601
v -2.230687 6.450541 -2.538212
v -4.448131 5.171274 -2.105459
v -5.290082 5.731430 -2.055614
v -5.411638 1.984566 -1.958893
v -5.424033 5.811395 -2.106789
v -5.290667 2.051603 -1.907877
v -5.411638 1.984566 -1.958893
v -5.290082 5.731430 -2.055614
v -4.559611 2.547505 -1.907871
v -4.448131 5.171274 -2.105459
v -4.448568 2.611439 -1.958858
v -4.448568 2.611439 -1.958858
v -2.011016 1.203466 -1.632731
v -4.559611 2.547505 -1.907871
v -2.011016 1.203466 -1.632731
v -2.034059 1.078508 -1.595620
v -4.559611 2.547505 -1.907871
v -2.220073 0.064371 -1.759719
v -5.411638 1.984566 -1.958893
v -5.290667 2.051603 -1.907877
v -1.648165 1.422667 -1.388702
v 0.439677 2.298745 -1.043138
v -1.239251 0.819620 -1.386804
v -0.027021 2.584994 -2.820749
v 0.089931 2.513032 -2.769594
v -1.718994 2.019101 -2.932352
v 0.089931 2.513032 -2.769594
v -1.719046 1.896153 -2.882227
v -1.718994 2.019101 -2.932352
v 0.089931 2.513032 -2.769594
v 0.323909 2.369003 -2.769285
v -1.719046 1.896153 -2.882227
v 0.323909 2.369003 -2.769285
v -1.719076 1.650153 -2.883978
v -1.719046 1.896153 -2.882227
v -1.719055 1.527100 -2.936852
v -1.719076 1.650153 -2.883978
v 0.440935 2.296936 -2.821130
v -1.719076 1.650153 -2.883978
v 0.323909 2.369003 -2.769285
v 0.440935 2.296936 -2.821130
vn -0.3192 -0.4302 0.8444
vn -0.1684 -0.3639 0.9161
vn -0.1622 -0.3524 0.9217
vn 0.2325 0.3608 0.9032
vn 0.0135 -0.0424 0.9990
vn 0.0413 0.0010 0.9991
vn 0.1870 0.2817 0.9411
vn 0.3437 -0.2273 0.9112
vn 0.0660 -0.5094 0.8580
vn -0.2691 -0.0503 0.9618
vn -0.3187 0.1008 0.9425
vn -0.3426 0.1167 0.9322
vn 0.0261 -0.0806 0.9964
vn -0.0153 -0.0516 0.9986
vn 0.2904 -0.2015 0.9355
vn 0.3225 -0.2152 0.9218
vn -0.3393 0.1125 0.9339
vn -0.3546 0.1154 0.9279
vn -0.0217 -0.0562 0.9982
vn -0.0290 -0.0450 0.9986
vn 0.3035 -0.2138 0.9285
vn 0.1714 0.4169 0.8927
vn 0.6832 0.0007 0.7302
vn 0.1346 0.0345 0.9903
vn -0.0396 0.0685 0.9969
vn -0.4249 0.0010 0.9053
vn -0.0744 -0.1448 0.9867
vn -0.3114 -0.2083 0.9272
vn -0.0769 0.0010 0.9970
vn 0.1364 0.3676 0.9199
vn -0.2678 -0.3557 0.8954
vn -0.0348 0.0601 0.9976
vn -0.2416 -0.3130 0.9185
vn 0.4474 0.0599 0.8924
vn 0.0334 0.0601 0.9976
vn -0.0387 0.0670 0.9970
vn -0.0369 0.3771 0.9254
vn 0.3879 0.0655 0.9194
vn -0.4426 0.0540 0.8951
vn -0.3928 0.0526 0.9181
vn -0.1103 0.4969 0.8607
vn 0.1110 0.1946 0.9746
vn 0.2003 0.0010 0.9797
vn -0.4550 -0.0579 0.8886
vn 0.3942 -0.3450 0.8518
vn 0.3274 -0.1749 0.9286
vn 0.2697 0.3632 0.8918
vn 0.0334 -0.0581 0.9978
vn 0.0755 0.0010 0.9971
vn 0.2582 0.3446 0.9025
vn -0.1761 -0.4205 0.8900
vn -0.1413 -0.3717 0.9175
vn -0.0689 0.0010 0.9976
vn -0.0348 -0.0581 0.9977
vn -0.3963 -0.0634 0.9159
vn 0.0373 -0.0650 0.9972
vn 0.4862 -0.0508 0.8724
vn 0.4316 -0.0492 0.9007
vn -0.1914 0.4012 0.8958
vn -0.1794 0.3651 0.9135
vn -0.0504 -0.0852 0.9951
vn -0.0489 0.4789 0.8765
vn 0.0826 -0.4319 0.8982
vn 0.0637 -0.3684 0.9275
vn 0.2952 0.6361 0.7129
vn -0.1001 0.0010 0.9950
vn -0.0438 0.0758 0.9962
vn 0.0760 0.3700 0.9259
vn -0.2828 -0.3542 0.8914
vn -0.2532 -0.3065 0.9176
vn 0.4392 0.0489 0.8971
vn -0.0082 0.3711 0.9286
vn 0.3598 -0.3444 0.8671
vn 0.3034 -0.2117 0.9290
vn -0.3382 0.0352 0.9404
vn -0.4055 0.0367 0.9133
vn 0.3916 0.0525 0.9187
vn 0.1436 0.4525 0.8801
vn 0.0426 0.2772 0.9599
vn -0.2317 -0.2888 0.9289
vn -0.1283 -0.0839 0.9882
vn -0.1802 0.3583 0.9161
vn -0.1833 0.3712 0.9103
vn -0.0404 -0.0635 0.9972
vn -0.0536 -0.0071 0.9985
vn 0.0911 -0.3931 0.9150
vn 0.1107 -0.4556 0.8833
vt 0.722656 -5.880859
vt 0.966797 1.250000
vt 0.718750 1.171875
vt 0.000000 0.966797
vt 0.228516 -6.582031
vt 0.183594 1.091797
vt 0.000000 -6.349609
vt 0.751953 0.849609
vt 0.712891 -7.546875
vt 0.966797 0.966797
vt 0.199219 -7.062500
vt 0.314453 0.611328
vt 0.966797 -7.791016
vt 0.732422 -2.021484
vt 0.958984 1.970703
vt 0.705078 1.724609
vt 0.966797 0.953125
vt 0.871094 -0.404297
vt 0.966797 -0.529297
vt 0.173828 0.365234
vt 0.210938 1.220703
vt -0.044922 -2.035156
vt 0.199219 -2.027344
vt 0.724609 -2.205078
vt 0.994141 -2.230469
vt 0.992188 -1.232422
vt 0.998047 -2.025391
vt 0.189453 -2.160156
vt -0.058594 -1.232422
vt -0.072266 -2.144531
vt 0.199219 -1.228516
vt 0.724609 -1.226562
vt 0.226562 -4.171875
vt 0.226562 0.882812
vt 0.000000 -4.023438
vt 0.000000 -2.556641
vt 0.222656 1.111328
vt 0.986328 -3.142578
vt 0.730469 1.404297
vt 0.986328 1.552734
vt 0.966797 -1.660156
vt 0.966797 1.464844
vt -0.046875 0.298828
vt -0.013672 1.005859
vt 0.740234 1.177734
vt 0.000000 0.734375
vt 0.996094 1.326172
vt 0.740234 -4.468750
vt 0.998047 -4.617188
vt 0.195312 -4.533203
vt 0.195312 0.521484
vt -0.060547 -4.384766
vt 0.708984 -4.830078
vt 0.708984 0.818359
vt 0.708984 -4.863281
vt 0.966797 -5.011719
vt -0.058594 0.373047
vt 0.966797 -4.978516
vt 0.710938 0.818359
vt 0.199219 0.523438
vt 0.193359 -4.568359
vt 0.226562 -3.939453
vt 0.226562 1.113281
vt 0.000000 -3.791016
vt -0.062500 -4.421875
vt -0.054688 0.376953
vt 0.740234 1.410156
vt 0.740234 -4.236328
vt 0.996094 1.558594
vt 0.998047 -4.384766
vt 0.685547 -4.384766
vt 0.742188 0.773438
vt 0.125000 -4.191406
vt 0.292969 0.384766
vt 0.068359 0.189453
vt -0.154297 -4.093750
vt 0.710938 1.814453
vt 0.708984 -5.046875
vt 0.966797 1.962891
vt 0.966797 -4.482422
vt 0.226562 -3.173828
vt 0.226562 0.693359
vt 0.000000 -3.025391
vt 0.740234 0.988281
vt 0.740234 -3.470703
vt 0.000000 0.546875
vt 0.998047 1.136719
vt 0.998047 -3.619141
vt 0.216797 1.107422
vt 0.000000 -4.769531
vt 0.216797 -4.912109
vt 0.966797 -5.195312
vt 0.199219 1.519531
vt -0.062500 -4.603516
vt 0.193359 -4.751953
vt -0.056641 1.371094
vt 0.962891 -5.341797
vt 0.962891 1.539062
vt 0.712891 -5.199219
vt 0.712891 1.394531
vt 0.808594 1.078125
vt 0.968750 -4.556641
vt 0.808594 -4.648438
vt 0.966797 -6.019531
vt 1.003906 -1.589844
vt 0.031250 -1.843750
vt -0.056641 -3.158203
vt 0.250000 0.994141
vt 0.017578 0.798828
vt 0.193359 -3.244141
vt 0.724609 1.375000
vt 0.705078 -3.427734
vt 0.966797 1.560547
vt 0.966797 -3.523438
s 0
usemtl Shape.025
f 3/1/1 2/2/1 1/3/1
f 6/4/2 5/5/2 4/6/2
f 9/7/3 8/5/3 7/4/3
f 12/8/4 11/9/4 10/10/4
f 15/8/5 14/11/5 13/9/5
f 18/12/6 17/11/6 16/8/6
f 21/10/7 20/9/7 19/13/7
f 24/14/8 23/15/8 22/16/8
f 27/17/9 26/18/9 25/19/9
f 30/17/10 29/20/10 28/18/10
f 33/21/11 32/4/11 31/22/11
f 36/21/12 35/22/12 34/23/12
f 39/23/13 38/16/13 37/21/13
f 42/23/14 41/14/14 40/16/14
f 45/24/15 44/25/15 43/26/15
f 48/14/16 47/27/16 46/15/16
f 51/28/17 50/29/17 49/30/17
f 54/31/18 53/29/18 52/28/18
f 57/28/19 56/32/19 55/31/19
f 60/28/20 59/24/20 58/32/20
f 63/24/21 62/26/21 61/32/21
f 66/33/22 65/34/22 64/35/22
f 69/4/23 68/36/23 67/37/23
f 72/36/24 71/38/24 70/39/24
f 75/36/25 74/39/25 73/37/25
f 78/40/26 77/39/26 76/38/26
f 81/41/27 80/42/27 79/43/27
f 84/17/28 83/44/28 82/20/28
f 87/33/29 86/45/29 85/34/29
f 90/35/30 89/34/30 88/46/30
f 93/47/31 92/45/31 91/48/31
f 96/48/32 95/45/32 94/33/32
f 99/47/33 98/48/33 97/49/33
f 102/50/34 101/51/34 100/52/34
f 105/53/35 104/54/35 103/50/35
f 108/50/36 107/54/36 106/51/36
f 111/10/37 110/55/37 109/56/37
f 114/52/38 113/51/38 112/57/38
f 117/10/39 116/54/39 115/53/39
f 120/10/40 119/53/40 118/58/40
f 123/59/41 122/55/41 121/10/41
f 126/60/42 125/61/42 124/59/42
f 129/59/43 128/61/43 127/55/43
f 132/62/44 131/63/44 130/64/44
f 135/60/45 134/65/45 133/61/45
f 138/66/46 137/65/46 136/60/46
f 141/67/47 140/68/47 139/69/47
f 144/67/48 143/62/48 142/68/48
f 147/63/49 146/62/49 145/67/49
f 150/69/50 149/68/50 148/70/50
f 153/64/51 152/62/51 151/63/51
f 156/64/52 155/63/52 154/4/52
f 159/71/53 158/72/53 157/73/53
f 162/68/54 161/67/54 160/62/54
f 165/64/55 164/63/55 163/4/55
f 168/62/56 167/67/56 166/63/56
f 171/68/57 170/69/57 169/67/57
f 174/70/58 173/69/58 172/68/58
f 177/73/59 176/74/59 175/75/59
f 180/73/60 179/75/60 178/76/60
f 183/73/61 182/72/61 181/74/61
f 186/77/62 185/78/62 184/79/62
f 189/10/63 188/72/63 187/71/63
f 192/10/64 191/71/64 190/80/64
f 195/81/65 194/82/65 193/83/65
f 198/81/66 197/84/66 196/82/66
f 201/85/67 200/84/67 199/81/67
f 204/83/68 203/82/68 202/86/68
f 207/87/69 206/84/69 205/85/69
f 210/87/70 209/85/70 208/88/70
f 213/89/71 212/90/71 211/91/71
f 216/79/72 215/78/72 214/92/72
f 219/93/73 218/94/73 217/95/73
f 222/96/74 221/94/74 220/93/74
f 225/97/75 224/98/75 223/99/75
f 228/99/76 227/98/76 226/100/76
f 231/4/77 230/90/77 229/89/77
f 234/101/78 233/102/78 232/10/78
f 237/101/79 236/103/79 235/102/79
f 240/1/80 239/104/80 238/2/80
f 243/105/81 242/4/81 241/106/81
f 246/107/82 245/108/82 244/109/82
f 249/107/83 248/110/83 247/108/83
f 252/110/84 251/111/84 250/108/84
f 255/110/85 254/112/85 253/111/85
f 258/113/86 257/112/86 256/114/86
f 261/113/87 260/111/87 259/112/87
