# Blender 4.1.1
# www.blender.org
mtllib Level1.028.mtl
o Level1.025
v 7.466270 -6.732096 -8.875923
v 7.466270 -8.496606 -8.875923
v 7.466270 -6.732096 7.656387
v 7.466270 -8.496606 7.656387
v -30.131180 -1.671699 -8.875923
v -30.131180 -3.436208 -8.875923
v -30.131180 -1.671699 7.656387
v -30.131180 -3.436208 7.656387
vn 0.1334 0.9911 -0.0000
vn -0.0000 -0.0000 1.0000
vn -1.0000 -0.0000 -0.0000
vn -0.1334 -0.9911 -0.0000
vn 1.0000 -0.0000 -0.0000
vn -0.0000 -0.0000 -1.0000
vt 0.875000 0.500000
vt 0.625000 0.750000
vt 0.625000 0.500000
vt 0.375000 1.000000
vt 0.375000 0.750000
vt 0.625000 0.000000
vt 0.375000 0.250000
vt 0.375000 0.000000
vt 0.375000 0.500000
vt 0.125000 0.750000
vt 0.125000 0.500000
vt 0.875000 0.750000
vt 0.625000 1.000000
vt 0.625000 0.250000
s 0
usemtl Material.035
f 5/1/1 3/2/1 1/3/1
f 3/2/2 8/4/2 4/5/2
f 7/6/3 6/7/3 8/8/3
f 2/9/4 8/10/4 6/11/4
f 1/3/5 4/5/5 2/9/5
f 6/7/6 1/3/6 2/9/6
f 5/1/1 7/12/1 3/2/1
f 3/2/2 7/13/2 8/4/2
f 7/6/3 5/14/3 6/7/3
f 2/9/4 4/5/4 8/10/4
f 1/3/5 3/2/5 4/5/5
f 6/7/6 5/14/6 1/3/6
