# Blender 4.1.1
# www.blender.org
mtllib Nexus1.002.mtl
o Nexus1.002
v -28.730165 -1.000000 8.441318
v -28.730165 1.000000 8.441318
v -28.618704 -1.000000 -35.611641
v -28.618704 1.000000 -35.611641
v 5.075003 -1.000000 8.608353
v 5.075003 1.000000 8.608353
v 5.186465 -1.000000 -35.444611
v 5.186465 1.000000 -35.444611
vn -1.0000 -0.0000 -0.0025
vn 0.0049 -0.0000 -1.0000
vn 1.0000 -0.0000 0.0025
vn -0.0049 -0.0000 1.0000
vn -0.0000 -1.0000 -0.0000
vn -0.0000 1.0000 -0.0000
vt 0.625000 0.000000
vt 0.375000 0.250000
vt 0.375000 0.000000
vt 0.625000 0.250000
vt 0.375000 0.500000
vt 0.625000 0.500000
vt 0.375000 0.750000
vt 0.625000 0.750000
vt 0.375000 1.000000
vt 0.125000 0.750000
vt 0.125000 0.500000
vt 0.875000 0.750000
vt 0.625000 1.000000
vt 0.875000 0.500000
s 0
usemtl Material.009
f 2/1/1 3/2/1 1/3/1
f 4/4/2 7/5/2 3/2/2
f 8/6/3 5/7/3 7/5/3
f 6/8/4 1/9/4 5/7/4
f 7/5/5 1/10/5 3/11/5
f 8/6/6 2/12/6 6/8/6
f 2/1/1 4/4/1 3/2/1
f 4/4/2 8/6/2 7/5/2
f 8/6/3 6/8/3 5/7/3
f 6/8/4 2/13/4 1/9/4
f 7/5/5 5/7/5 1/10/5
f 8/6/6 4/14/6 2/12/6
