# Blender 4.1.1
# www.blender.org
mtllib Shape_IndexedFaceSet.017.mtl
o Shape_IndexedFaceSet.017
v -4.639241 -5.220553 -1.039038
v -4.639267 -5.424551 -1.038830
v -4.638878 -5.221074 -1.551035
v -4.639267 -5.424551 -1.038830
v -4.638905 -5.425073 -1.550828
v -4.638878 -5.221074 -1.551035
v -4.639241 -5.220553 -1.039038
v -4.638878 -5.221074 -1.551035
v -4.434881 -5.221100 -1.550893
v -4.435243 -5.220579 -1.038895
v -4.639241 -5.220553 -1.039038
v -4.434881 -5.221100 -1.550893
v -4.639267 -5.424551 -1.038830
v -4.435270 -5.424577 -1.038688
v -4.638905 -5.425073 -1.550828
v -4.435270 -5.424577 -1.038688
v -4.434908 -5.425098 -1.550686
v -4.638905 -5.425073 -1.550828
v -4.435270 -5.424577 -1.038688
v -4.435243 -5.220579 -1.038895
v -4.434908 -5.425098 -1.550686
v -4.435243 -5.220579 -1.038895
v -4.434881 -5.221100 -1.550893
v -4.434908 -5.425098 -1.550686
v -4.435270 -5.424577 -1.038688
v -4.639267 -5.424551 -1.038830
v -4.639241 -5.220553 -1.039038
v -4.435243 -5.220579 -1.038895
v -4.435270 -5.424577 -1.038688
v -4.639241 -5.220553 -1.039038
v -4.792923 -5.579052 -1.550779
v -4.280931 -5.579117 -1.550422
v -5.049315 -5.834496 -1.038700
v -4.792923 -5.579052 -1.550779
v -4.638905 -5.425073 -1.550828
v -4.280931 -5.579117 -1.550422
v -4.792856 -5.067056 -1.551299
v -4.638878 -5.221074 -1.551035
v -4.792923 -5.579052 -1.550779
v -4.638878 -5.221074 -1.551035
v -4.638905 -5.425073 -1.550828
v -4.792923 -5.579052 -1.550779
v -4.434881 -5.221100 -1.550893
v -4.638878 -5.221074 -1.551035
v -4.792856 -5.067056 -1.551299
v -4.638905 -5.425073 -1.550828
v -4.434908 -5.425098 -1.550686
v -4.280931 -5.579117 -1.550422
v -4.280863 -5.067121 -1.550942
v -4.434881 -5.221100 -1.550893
v -4.792856 -5.067056 -1.551299
v -4.280931 -5.579117 -1.550422
v -4.434908 -5.425098 -1.550686
v -4.280863 -5.067121 -1.550942
v -4.434908 -5.425098 -1.550686
v -4.434881 -5.221100 -1.550893
v -4.280863 -5.067121 -1.550942
v -4.792923 -5.579052 -1.550779
v -5.049315 -5.834496 -1.038700
v -5.049181 -4.810503 -1.039740
v -4.792856 -5.067056 -1.551299
v -4.792923 -5.579052 -1.550779
v -5.049181 -4.810503 -1.039740
v 4.026200 -0.600628 -0.973694
v 4.070206 -0.556633 -0.973708
v 4.342166 -0.826665 -0.973244
v -4.280931 -5.579117 -1.550422
v -4.025330 -5.834627 -1.037986
v -5.049315 -5.834496 -1.038700
v -4.280863 -5.067121 -1.550942
v -4.025195 -4.810634 -1.039026
v -4.025330 -5.834627 -1.037986
v -4.280931 -5.579117 -1.550422
v -4.280863 -5.067121 -1.550942
v -4.025330 -5.834627 -1.037986
v -4.792856 -5.067056 -1.551299
v -5.049181 -4.810503 -1.039740
v -4.025195 -4.810634 -1.039026
v -4.280863 -5.067121 -1.550942
v -4.792856 -5.067056 -1.551299
v -4.025195 -4.810634 -1.039026
v 4.297161 -0.871660 -0.973230
v 4.026200 -0.600628 -0.973694
v 4.342166 -0.826665 -0.973244
v 4.026200 -0.600628 -0.973694
v 4.297161 -0.871660 -0.973230
v 4.025155 -0.601562 -0.909694
v 4.297161 -0.871660 -0.973230
v 4.297115 -0.871594 -0.909230
v 4.025155 -0.601562 -0.909694
v 4.252110 -0.916588 -0.909215
v 4.252066 -0.916523 -0.845216
v 3.981105 -0.646490 -0.845679
v 3.981150 -0.646556 -0.909679
v 4.252110 -0.916588 -0.909215
v 3.981105 -0.646490 -0.845679
v 4.252110 -0.916588 -0.909215
v 3.981150 -0.646556 -0.909679
v 4.297115 -0.871594 -0.909230
v 3.981150 -0.646556 -0.909679
v 4.025155 -0.601562 -0.909694
v 4.297115 -0.871594 -0.909230
v 4.207060 -0.961517 -0.845201
v 3.936099 -0.691485 -0.845665
v 4.252066 -0.916523 -0.845216
v 3.936099 -0.691485 -0.845665
v 3.981105 -0.646490 -0.845679
v 4.252066 -0.916523 -0.845216
v 3.936099 -0.691485 -0.845665
v 4.207060 -0.961517 -0.845201
v 3.936053 -0.691420 -0.781665
v 4.207060 -0.961517 -0.845201
v 4.207015 -0.961452 -0.781202
v 3.936053 -0.691420 -0.781665
v 4.207015 -0.961452 -0.781202
v 4.252066 -0.916523 -0.845216
v 4.342031 -0.826470 -0.781245
v 4.252066 -0.916523 -0.845216
v 4.297115 -0.871594 -0.909230
v 4.342031 -0.826470 -0.781245
v 4.297115 -0.871594 -0.909230
v 4.342166 -0.826665 -0.973244
v 4.342031 -0.826470 -0.781245
v 4.252110 -0.916588 -0.909215
v 4.297115 -0.871594 -0.909230
v 4.252066 -0.916523 -0.845216
v 4.297161 -0.871660 -0.973230
v 4.342166 -0.826665 -0.973244
v 4.297115 -0.871594 -0.909230
v 4.207060 -0.961517 -0.845201
v 4.252066 -0.916523 -0.845216
v 4.207015 -0.961452 -0.781202
vn -1.0000 0.0001 -0.0007
vn 0.0001 1.0000 -0.0010
vn -0.0001 -1.0000 0.0010
vn 1.0000 -0.0001 0.0007
vn -0.0007 0.0010 1.0000
vn -0.0002 0.8949 0.4463
vn 0.8941 0.0003 0.4478
vn -0.8947 0.0006 0.4466
vn -0.0004 -0.8940 0.4481
vn 0.7070 0.7069 0.0219
vn 0.7046 0.7096 -0.0002
vn 0.7059 0.7083 -0.0002
vn -0.7070 0.7072 -0.0012
vt 3.462891 0.966797
vt 4.460938 0.000000
vt 3.462891 0.000000
vt 4.460938 0.966797
vt 2.464844 0.966797
vt 2.462891 0.000000
vt 0.466797 0.966797
vt 1.466797 0.000000
vt 0.468750 0.000000
vt 1.466797 0.966797
vt 0.000000 0.000000
vt 0.767578 0.000000
vt 0.767578 0.767578
vt 0.000000 0.767578
vt 1.466797 1.082031
vt 0.966797 0.000000
vt 0.000000 0.966797
vt 0.667969 0.667969
vt 0.966797 0.966797
vt 0.667969 0.267578
vt 0.267578 0.267578
vt 0.267578 0.667969
vt 1.470703 1.082031
vt -0.523438 1.082031
vt -0.025391 0.000000
vt 0.972656 0.000000
vt -0.902344 -0.128906
vt 0.966797 -0.130859
vt 0.966797 0.087891
vt -0.529297 1.082031
vt 1.464844 1.082031
vt -0.527344 1.082031
vt -0.902344 0.087891
vt 0.966797 0.308594
vt -0.902344 0.308594
vt 0.966797 0.748047
vt -0.902344 0.748047
vt -0.902344 0.527344
vt 0.966797 0.527344
vt -0.902344 0.966797
vt 0.966797 1.185547
vt -0.902344 1.185547
vt 0.656250 0.621094
vt 1.000000 0.966797
vt 0.310547 0.273438
vt 0.000000 -0.072266
vt 0.656250 0.273438
vt 0.310547 -0.072266
vt 1.000000 0.621094
s 0
usemtl Shape.017
f 3/1/1 2/2/1 1/3/1
f 6/1/1 5/4/1 4/2/1
f 9/5/2 8/1/2 7/3/2
f 12/5/2 11/3/2 10/6/2
f 15/7/3 14/8/3 13/9/3
f 18/7/3 17/10/3 16/8/3
f 21/10/4 20/6/4 19/8/4
f 24/10/4 23/5/4 22/6/4
f 27/11/5 26/12/5 25/13/5
f 30/11/5 29/13/5 28/14/5
f 33/15/6 32/11/6 31/16/6
f 36/17/5 35/18/5 34/19/5
f 39/19/5 38/20/5 37/16/5
f 42/19/5 41/18/5 40/20/5
f 45/16/5 44/20/5 43/21/5
f 48/17/5 47/22/5 46/18/5
f 51/16/5 50/21/5 49/11/5
f 54/11/5 53/22/5 52/17/5
f 57/11/5 56/21/5 55/22/5
f 60/23/7 59/24/7 58/25/7
f 63/23/7 62/25/7 61/26/7
f 66/27/5 65/28/5 64/29/5
f 69/15/6 68/30/6 67/11/6
f 72/31/8 71/32/8 70/11/8
f 75/31/8 74/11/8 73/16/8
f 78/15/9 77/30/9 76/11/9
f 81/15/9 80/11/9 79/16/9
f 84/27/5 83/29/5 82/33/5
f 87/34/10 86/33/10 85/29/10
f 90/34/11 89/35/11 88/33/11
f 93/36/12 92/37/12 91/38/12
f 96/36/12 95/38/12 94/39/12
f 99/35/5 98/39/5 97/38/5
f 102/35/5 101/34/5 100/39/5
f 105/37/5 104/19/5 103/40/5
f 108/37/5 107/36/5 106/19/5
f 111/41/12 110/40/12 109/19/12
f 114/41/12 113/42/12 112/40/12
f 117/17/13 116/43/13 115/44/13
f 120/17/13 119/45/13 118/43/13
f 123/17/13 122/46/13 121/45/13
f 126/43/13 125/45/13 124/47/13
f 129/45/13 128/46/13 127/48/13
f 132/44/13 131/43/13 130/49/13
