# Blender 4.1.1
# www.blender.org
mtllib Shape_IndexedFaceSet.029.mtl
o Shape_IndexedFaceSet.029
v -0.971742 4.736685 -4.213589
v -1.059808 4.787802 -4.110703
v -1.059986 4.788058 -3.857704
v -0.971742 4.736685 -4.213589
v -0.766697 5.091654 -4.216806
v -0.854761 5.142769 -4.113920
v -1.059808 4.787802 -4.110703
v -0.971742 4.736685 -4.213589
v -0.854761 5.142769 -4.113920
v -0.971742 4.736685 -4.213589
v -0.793758 4.634663 -4.213361
v -0.766697 5.091654 -4.216806
v -0.793758 4.634663 -4.213361
v -0.588712 4.989632 -4.216579
v -0.766697 5.091654 -4.216806
v -0.793758 4.634663 -4.213361
v -0.705839 4.583757 -4.110249
v -0.588712 4.989632 -4.216579
v -0.705839 4.583757 -4.110249
v -0.500794 4.938725 -4.113466
v -0.588712 4.989632 -4.216579
v -0.705839 4.583757 -4.110249
v -0.706019 4.584015 -3.857250
v -0.500794 4.938725 -4.113466
v -0.706019 4.584015 -3.857250
v -0.500975 4.938986 -3.857467
v -0.500794 4.938725 -4.113466
v -1.059986 4.788058 -3.857704
v -1.059808 4.787802 -4.110703
v -0.854943 5.143030 -3.857921
v -0.705839 4.583757 -4.110249
v -0.793758 4.634663 -4.213361
v -1.059986 4.788058 -3.857704
v -0.793758 4.634663 -4.213361
v -0.971742 4.736685 -4.213589
v -1.059986 4.788058 -3.857704
v -0.706019 4.584015 -3.857250
v -0.705839 4.583757 -4.110249
v -1.059986 4.788058 -3.857704
v -1.059986 4.788058 -3.857704
v -0.854943 5.143030 -3.857921
v -0.500975 4.938986 -3.857467
v -0.706019 4.584015 -3.857250
v -1.059986 4.788058 -3.857704
v -0.500975 4.938986 -3.857467
v -1.059808 4.787802 -4.110703
v -0.854761 5.142769 -4.113920
v -0.854943 5.143030 -3.857921
v 0.396137 4.472047 -2.704371
v 0.040169 4.676092 -2.704827
v 0.601180 4.827019 -2.704589
v 0.038351 4.676830 -2.961828
v 0.129414 4.624715 -3.063711
v 0.245393 5.030802 -2.961043
v 0.129414 4.624715 -3.063711
v 0.334459 4.979686 -3.063930
v 0.245393 5.030802 -2.961043
v 0.129414 4.624715 -3.063711
v 0.307399 4.522693 -3.063483
v 0.334459 4.979686 -3.063930
v 0.307399 4.522693 -3.063483
v 0.512442 4.877664 -3.063701
v 0.334459 4.979686 -3.063930
v 0.307399 4.522693 -3.063483
v 0.396317 4.471786 -2.960370
v 0.512442 4.877664 -3.063701
v 0.396317 4.471786 -2.960370
v 0.601362 4.826757 -2.960588
v 0.512442 4.877664 -3.063701
v 0.396137 4.472047 -2.704371
v 0.601180 4.827019 -2.704589
v 0.601362 4.826757 -2.960588
v 0.396317 4.471786 -2.960370
v 0.396137 4.472047 -2.704371
v 0.601362 4.826757 -2.960588
v 0.129414 4.624715 -3.063711
v 0.038351 4.676830 -2.961828
v 0.040169 4.676092 -2.704827
v 0.040169 4.676092 -2.704827
v 0.245212 5.031062 -2.705044
v 0.601180 4.827019 -2.704589
v 0.040169 4.676092 -2.704827
v 0.245393 5.030802 -2.961043
v 0.245212 5.031062 -2.705044
v 0.038351 4.676830 -2.961828
v 0.245393 5.030802 -2.961043
v 0.040169 4.676092 -2.704827
v 0.396137 4.472047 -2.704371
v 0.396317 4.471786 -2.960370
v 0.040169 4.676092 -2.704827
v 0.396317 4.471786 -2.960370
v 0.307399 4.522693 -3.063483
v 0.040169 4.676092 -2.704827
v 0.307399 4.522693 -3.063483
v 0.129414 4.624715 -3.063711
v 0.040169 4.676092 -2.704827
vn -0.5016 -0.8651 0.0005
vn -0.6182 0.3507 -0.7034
vn -0.0029 -0.0074 -1.0000
vn 0.6141 -0.3611 -0.7018
vn 0.8659 -0.5002 0.0011
vn -0.8659 0.5002 -0.0011
vn -0.5002 -0.8659 -0.0010
vn -0.4973 -0.8676 0.0019
vn -0.4994 -0.8664 0.0005
vn -0.0007 0.0010 1.0000
vn -0.6007 0.3529 -0.7174
vn -0.6131 0.3537 -0.7064
vn 0.0007 -0.0010 -1.0000
vn 0.6141 -0.3551 -0.7049
vn 0.6140 -0.3551 -0.7049
vn -0.4959 -0.8684 0.0010
vn -0.8632 0.5049 0.0076
vn -0.4973 -0.8676 0.0005
vt 0.000000 0.966797
vt 0.000000 0.308594
vt 0.234375 0.042969
vt 0.167969 -0.029297
vt 0.433594 0.000000
vt 0.433594 1.031250
vt 0.167969 1.033203
vt 0.966797 1.031250
vt 0.966797 0.000000
vt 1.232422 1.033203
vt 1.232422 -0.029297
vt 0.000000 0.000000
vt 1.566406 0.966797
vt 1.566406 -0.021484
vt 0.767578 0.042969
vt 1.033203 0.308594
vt 1.033203 0.966797
vt 1.033203 1.031250
vt 0.000000 1.031250
vt 1.033203 0.000000
vt 3.660156 2.210938
vt 2.595703 1.142578
vt 3.660156 1.146484
vt 2.794922 -1.185547
vt 3.062500 -0.123047
vt 2.787109 -0.119141
vt 3.062500 -1.187500
vt 3.593750 -0.125000
vt 3.593750 -1.189453
vt 3.861328 -0.123047
vt 3.861328 -1.189453
vt -1.798828 4.457031
vt -1.798828 5.455078
vt -0.201172 5.455078
vt -0.201172 4.457031
vt 2.595703 3.958984
vt 2.587891 3.292969
vt 2.863281 3.027344
vt 2.595703 2.208984
vt -1.792969 5.455078
vt -1.792969 4.457031
vt -0.195312 5.455078
vt -0.195312 4.457031
vt 3.660156 3.292969
vt 3.660156 3.958984
vt 3.394531 3.027344
s 0
usemtl Shape.029
f 3/1/1 2/2/1 1/3/1
f 6/4/2 5/5/2 4/6/2
f 9/4/2 8/6/2 7/7/2
f 12/5/3 11/8/3 10/6/3
f 15/5/3 14/9/3 13/8/3
f 18/9/4 17/10/4 16/8/4
f 21/9/4 20/11/4 19/10/4
f 24/12/5 23/13/5 22/14/5
f 27/12/5 26/1/5 25/13/5
f 30/1/6 29/14/6 28/13/6
f 33/1/7 32/15/7 31/16/7
f 36/1/8 35/3/8 34/15/8
f 39/1/9 38/16/9 37/17/9
f 42/18/10 41/19/10 40/12/10
f 45/18/10 44/12/10 43/20/10
f 48/1/6 47/12/6 46/14/6
f 51/21/10 50/22/10 49/23/10
f 54/24/11 53/25/11 52/26/11
f 57/24/12 56/27/12 55/25/12
f 60/27/13 59/28/13 58/25/13
f 63/27/13 62/29/13 61/28/13
f 66/29/14 65/30/14 64/28/14
f 69/29/15 68/31/15 67/30/15
f 72/32/5 71/33/5 70/34/5
f 75/32/5 74/34/5 73/35/5
f 78/36/16 77/37/16 76/38/16
f 81/21/10 80/39/10 79/22/10
f 84/40/6 83/41/6 82/42/6
f 87/42/17 86/41/17 85/43/17
f 90/36/18 89/44/18 88/45/18
f 93/36/18 92/46/18 91/44/18
f 96/36/18 95/38/18 94/46/18
