# Blender 4.1.1
# www.blender.org
mtllib Shape_IndexedFaceSet.018.mtl
o Shape_IndexedFaceSet.018
v 7.376637 2.450807 -1.089459
v 7.244658 2.607822 -1.089710
v 7.516685 2.837785 -1.089755
v -1.312714 -7.364754 -0.829542
v -1.242689 -7.170763 -0.829690
v -1.040687 -7.135790 -0.829585
v -0.908710 -7.293806 -0.829333
v -0.978734 -7.486796 -0.829186
v -1.040687 -7.135790 -0.829585
v -0.978734 -7.486796 -0.829186
v -1.180737 -7.521770 -0.829291
v -1.040687 -7.135790 -0.829585
v -1.180737 -7.521770 -0.829291
v -1.312714 -7.364754 -0.829542
v -1.040687 -7.135790 -0.829585
v 7.033901 4.435836 -1.091714
v 6.832899 4.399861 -1.091818
v 6.972949 4.786841 -1.092113
v 6.700923 4.556878 -1.092069
v 6.770947 4.751867 -1.092219
v 6.972949 4.786841 -1.092113
v 6.832899 4.399861 -1.091818
v 6.700923 4.556878 -1.092069
v 6.972949 4.786841 -1.092113
v 7.104927 4.627827 -1.091860
v 7.033901 4.435836 -1.091714
v 6.972949 4.786841 -1.092113
v 7.578638 2.485780 -1.089354
v 7.376637 2.450807 -1.089459
v 7.516685 2.837785 -1.089755
v 7.648663 2.678770 -1.089501
v 7.578638 2.485780 -1.089354
v 7.516685 2.837785 -1.089755
v 7.244658 2.607822 -1.089710
v 7.314683 2.801812 -1.089859
v 7.516685 2.837785 -1.089755
vn -0.0007 0.0010 1.0000
vt -1.027344 -3.523438
vt 4.958984 0.000000
vt 2.962891 3.423828
vt 2.962891 -3.523438
vt -1.027344 3.423828
vt -3.023438 0.000000
s 0
usemtl Shape.018
f 3/1/1 2/2/1 1/3/1
f 6/1/1 5/4/1 4/2/1
f 9/1/1 8/5/1 7/6/1
f 12/1/1 11/3/1 10/5/1
f 15/1/1 14/2/1 13/3/1
f 18/1/1 17/3/1 16/5/1
f 21/1/1 20/4/1 19/2/1
f 24/1/1 23/2/1 22/3/1
f 27/1/1 26/5/1 25/6/1
f 30/1/1 29/3/1 28/5/1
f 33/1/1 32/5/1 31/6/1
f 36/1/1 35/4/1 34/2/1
