# Blender 4.1.1
# www.blender.org
mtllib cubemap.mtl
o Cube.018
v -65.464584 -65.464561 -65.464584
v -65.464569 65.464592 -65.464569
v -65.464584 -65.464577 65.464569
v -65.464569 65.464577 65.464584
v 65.464569 -65.464577 -65.464584
v 65.464584 65.464577 -65.464569
v 65.464569 -65.464592 65.464569
v 65.464584 65.464561 65.464584
vn -1.0000 -0.0000 -0.0000
vn -0.0000 -0.0000 1.0000
vn 1.0000 -0.0000 -0.0000
vn -0.0000 -0.0000 -1.0000
vn -0.0000 -1.0000 -0.0000
vn -0.0000 1.0000 -0.0000
vt 1.000000 0.375001
vt 0.750000 0.375001
vt 0.750000 0.625001
vt 1.000000 0.625001
vt 0.500000 0.375000
vt 0.500000 0.625000
vt 0.250000 0.374999
vt 0.250000 0.624999
vt 0.000000 0.374999
vt -0.000000 0.624999
vt 0.500001 0.125000
vt 0.250001 0.124999
vt 0.249999 0.874999
vt 0.499999 0.875000
s 0
usemtl Material.019
f 1/1/1 3/2/1 4/3/1 2/4/1
f 3/2/2 7/5/2 8/6/2 4/3/2
f 7/5/3 5/7/3 6/8/3 8/6/3
f 5/7/4 1/9/4 2/10/4 6/8/4
f 3/11/5 1/12/5 5/7/5 7/5/5
f 8/6/6 6/8/6 2/13/6 4/14/6
