# Blender 4.1.1
# www.blender.org
mtllib cubemap.mtl
o Cube
v 14.821676 14.821676 -14.821676
v 14.821676 -14.821676 -14.821676
v 14.821676 14.821676 14.821676
v 14.821676 -14.821676 14.821676
v -14.821676 14.821676 -14.821676
v -14.821676 -14.821676 -14.821676
v -14.821676 14.821676 14.821676
v -14.821676 -14.821676 14.821676
vn 1.0000 -0.0000 -0.0000
vn -0.0000 -0.0000 1.0000
vn -1.0000 -0.0000 -0.0000
vn -0.0000 -0.0000 -1.0000
vn -0.0000 1.0000 -0.0000
vn -0.0000 -1.0000 -0.0000
vt 1.000000 0.375001
vt 1.000000 0.625001
vt 0.750000 0.625001
vt 0.750000 0.375001
vt 0.500000 0.625000
vt 0.500000 0.375000
vt 0.250000 0.624999
vt 0.250000 0.374999
vt -0.000000 0.624999
vt 0.000000 0.374999
vt 0.500001 0.125000
vt 0.250001 0.124999
vt 0.499999 0.875000
vt 0.249999 0.874999
s 0
usemtl Material.001
f 1/1/1 3/4/1 4/3/1 2/2/1
f 3/4/2 7/6/2 8/5/2 4/3/2
f 7/6/3 5/8/3 6/7/3 8/5/3
f 5/8/4 1/10/4 2/9/4 6/7/4
f 3/11/5 1/12/5 5/8/5 7/6/5
f 8/5/6 6/7/6 2/14/6 4/13/6
