# Blender 4.1.1
# www.blender.org
mtllib polygon.mtl
o cfpoly
v -0.091700 0.044800 -0.053700
v -0.073700 0.050100 0.006800
v -0.048800 0.044400 -0.049700
v -0.074100 -0.000700 -0.061800
v -0.110200 0.000200 0.026700
v -0.038000 0.000400 0.030400
v -0.077200 0.023200 0.062600
v -0.078700 -0.000600 0.073500
v -0.080300 0.226500 -0.018300
v -0.071900 0.026600 -0.012200
v -0.055300 0.235900 0.006800
v -0.035300 0.232400 -0.018700
v -0.082500 0.026800 -0.021600
v -0.055200 0.195300 -0.049600
v -0.060300 0.026700 -0.021900
v -0.071400 0.026100 -0.035400
v -0.061700 0.375000 -0.022000
v -0.111000 0.294800 -0.022300
v -0.043400 0.317600 0.021600
v -0.035100 0.379200 0.003600
v -0.000845 0.353580 -0.021426
v -0.034700 0.379200 -0.049100
v -0.053000 0.206800 -0.021900
v -0.043000 0.317400 -0.077500
v 0.073200 0.050100 0.007400
v 0.091300 0.044000 -0.052800
v 0.048400 0.043700 -0.049800
v 0.073600 -0.000500 -0.061300
v 0.037600 0.000200 0.029800
v 0.108800 -0.000500 0.025900
v 0.076200 0.023100 0.062100
v 0.077200 -0.000900 0.074000
v 0.059900 0.025600 -0.021900
v 0.056100 0.235900 0.006900
v 0.035100 0.232400 -0.018800
v 0.080000 0.226400 -0.018200
v 0.072500 0.025600 -0.012100
v 0.056000 0.195400 -0.049500
v 0.082100 0.025700 -0.021600
v 0.072000 0.026100 -0.035300
v 0.002939 0.353642 -0.022227
v 0.043300 0.317600 0.021600
v 0.035100 0.379200 0.003600
v 0.034800 0.379200 -0.049100
v 0.061700 0.375000 -0.022000
v 0.052700 0.206800 -0.021900
v 0.043000 0.317400 -0.077500
v 0.110900 0.294700 -0.022200
v -0.170800 0.291400 0.005700
v -0.125800 0.270700 0.005800
v -0.116700 0.325400 0.003700
v -0.164400 0.339100 0.002900
v -0.116200 0.326300 -0.054300
v -0.163500 0.339900 -0.054000
v -0.170500 0.292300 -0.056500
v -0.125600 0.270600 -0.056400
v -0.098000 0.408500 -0.064600
v -0.123300 0.446800 -0.028100
v -0.098100 0.408700 0.007900
v -0.163800 0.419700 -0.029200
v -0.132800 0.321700 -0.010600
v -0.132200 0.321500 -0.047000
v -0.157800 0.326700 -0.028900
v -0.122900 0.522700 -0.029200
v -0.053900 0.572000 0.032400
v -0.162400 0.571200 -0.029400
v -0.107400 0.628400 -0.030000
v -0.053800 0.571600 -0.088400
v -0.087000 0.514500 -0.010100
v -0.086900 0.515400 -0.048500
v -0.138700 0.428700 -0.029900
v -0.113300 0.423700 -0.014000
v -0.112500 0.423400 -0.046000
v 0.041900 0.583900 -0.029300
v -0.041900 0.583900 -0.029300
v 0.000000 0.553395 -0.060195
v -0.045000 0.626800 -0.029300
v 0.000000 0.569200 0.015700
v 0.000000 0.655100 -0.050200
v 0.000000 0.626800 0.018800
v 0.045000 0.626800 -0.029300
v 0.164400 0.339800 0.003800
v 0.164000 0.339500 -0.053500
v 0.117100 0.325700 -0.053800
v 0.116500 0.325900 0.003400
v 0.171400 0.292200 0.006800
v 0.126000 0.271200 0.006600
v 0.125400 0.270800 -0.056100
v 0.170800 0.291800 -0.055800
v 0.123100 0.446700 -0.028400
v 0.098900 0.408900 0.008200
v 0.164100 0.419800 -0.028000
v 0.098900 0.408600 -0.065000
v 0.133100 0.321600 -0.047100
v 0.132500 0.321700 -0.010100
v 0.158200 0.326800 -0.028200
v 0.087400 0.515400 -0.048000
v 0.053300 0.571900 0.031900
v 0.053500 0.571400 -0.088900
v 0.109100 0.628800 -0.029900
v 0.161800 0.571100 -0.029600
v 0.087900 0.514600 -0.009800
v 0.123000 0.522700 -0.029500
v 0.112400 0.423500 -0.013700
v 0.113200 0.423500 -0.045400
v 0.138800 0.428700 -0.029600
v 0.031400 0.475000 -0.046100
v 0.000000 0.408000 -0.019900
v -0.031400 0.475000 -0.046100
v -0.031400 0.466600 0.012600
v -0.072200 0.504300 -0.062800
v 0.072200 0.504300 -0.062800
v -0.064900 0.574500 -0.060700
v -0.047100 0.504300 0.036600
v -0.051300 0.550400 0.028300
v 0.064900 0.574500 -0.060700
v 0.031400 0.466600 0.012600
v 0.047100 0.504300 0.036600
v 0.051300 0.550400 0.028300
v -0.039800 0.432100 -0.053400
v 0.053400 0.399600 -0.056500
v -0.053400 0.399600 -0.056500
v 0.000000 0.350400 -0.041900
v 0.000000 0.350400 0.005200
v -0.034500 0.399600 0.019900
v 0.039800 0.432100 -0.053400
v -0.025100 0.432100 0.015700
v 0.034600 0.399600 0.019900
v 0.025100 0.432100 0.015700
vn 0.0182 0.9956 -0.0921
vn 0.0943 0.2084 -0.9735
vn -0.7613 0.6253 0.1717
vn -0.8893 -0.2809 -0.3610
vn 0.7244 0.6408 0.2544
vn 0.8584 -0.3914 -0.3316
vn 0.6714 0.6501 0.3558
vn -0.7267 0.6355 0.2608
vn 0.0037 -0.9998 -0.0185
vn -0.7900 0.2947 0.5377
vn 0.0022 -0.9999 0.0106
vn 0.6988 0.2610 0.6660
vn -0.7068 -0.0080 0.7074
vn -0.1296 0.9640 -0.2324
vn 0.7731 -0.1177 0.6233
vn -0.6635 -0.0051 0.7481
vn -0.7713 0.0191 -0.6362
vn 0.6390 -0.0894 0.7640
vn 0.7696 -0.1264 -0.6259
vn -0.7816 0.0229 -0.6233
vn -0.0959 0.6665 -0.7394
vn 0.8873 -0.1014 -0.4498
vn -0.5905 0.3603 0.7222
vn -0.6873 0.2875 0.6670
vn 0.5993 0.8005 0.0036
vn 0.5993 0.8005 0.0035
vn -0.1525 0.9883 -0.0018
vn 0.4894 -0.1772 0.8538
vn 0.4895 -0.1773 0.8538
vn 0.9911 -0.1133 0.0699
vn 0.8452 -0.2990 -0.4429
vn 0.7097 0.2133 -0.6714
vn 0.7096 0.2135 -0.6715
vn -0.6839 0.3787 -0.6235
vn -0.4491 -0.2926 0.8442
vn -0.5203 -0.3458 -0.7809
vn -0.6543 0.4037 -0.6394
vn -0.0134 0.9944 -0.1049
vn -0.0689 0.2141 -0.9744
vn -0.7325 0.6341 0.2480
vn -0.8540 -0.3994 -0.3335
vn 0.7759 0.6073 0.1708
vn 0.8888 -0.2850 -0.3588
vn 0.7408 0.6172 0.2652
vn -0.6785 0.6433 0.3547
vn -0.0104 -0.9998 -0.0147
vn -0.7091 0.2895 0.6429
vn -0.0096 -0.9999 0.0039
vn 0.7977 0.2951 0.5260
vn -0.7624 -0.1012 0.6392
vn 0.1312 0.9619 -0.2397
vn 0.7225 -0.0060 0.6914
vn -0.6101 -0.1183 0.7835
vn -0.8735 -0.0976 -0.4770
vn 0.7046 -0.0048 0.7096
vn 0.8061 0.0180 -0.5915
vn -0.7344 -0.1252 -0.6671
vn 0.0979 0.6677 -0.7380
vn 0.7819 0.0216 -0.6230
vn -0.6790 0.1210 0.7241
vn -0.6790 0.1209 0.7241
vn -0.6245 0.7810 0.0030
vn -0.6244 0.7811 0.0032
vn 0.6871 0.2862 0.6679
vn -0.8095 -0.2733 0.5196
vn -0.7229 0.2067 -0.6593
vn -0.7231 0.2066 -0.6591
vn 0.1541 0.9881 -0.0014
vn 0.6854 0.3778 -0.6225
vn -0.8552 -0.2907 -0.4292
vn 0.6558 0.4027 -0.6385
vn 0.5895 0.3594 0.7234
vn 0.5207 -0.3465 -0.7803
vn 0.4478 -0.2936 0.8446
vn 0.0147 0.0360 0.9992
vn 0.0006 0.0586 0.9983
vn 0.2767 0.9608 0.0170
vn 0.2768 0.9608 0.0177
vn 0.2768 0.9608 0.0171
vn 0.2759 0.9610 0.0170
vn -0.9908 0.1355 -0.0038
vn -0.9895 0.1441 -0.0112
vn -0.9894 0.1449 -0.0124
vn -0.9909 0.1343 -0.0039
vn 0.0189 0.0362 -0.9992
vn 0.0095 0.0511 -0.9986
vn -0.4351 -0.9003 -0.0151
vn -0.4170 -0.9089 0.0010
vn 0.9866 -0.1630 0.0059
vn 0.9866 -0.1628 0.0056
vn 0.9860 -0.1666 0.0059
vn 0.9867 -0.1628 0.0033
vn 0.8340 0.5518 -0.0008
vn -0.3590 0.5053 0.7847
vn -0.4900 0.0100 0.8716
vn -0.3314 0.5270 -0.7826
vn 0.9308 -0.3654 0.0023
vn -0.5938 -0.0355 0.8039
vn -0.5695 0.0588 -0.8199
vn 0.9276 -0.3733 0.0158
vn -0.4775 -0.0337 -0.8780
vn -0.4576 -0.3698 0.8086
vn -0.4476 0.4373 0.7800
vn 0.7264 0.6872 -0.0017
vn -0.5013 -0.3084 0.8084
vn 0.8696 -0.4937 -0.0093
vn -0.4363 0.4112 -0.8004
vn -0.4435 -0.3646 -0.8188
vn 0.8624 -0.5062 0.0024
vn -0.4565 0.0705 0.8869
vn -0.4972 -0.2877 -0.8185
vn 0.9599 -0.2789 0.0264
vn -0.5125 0.1124 0.8513
vn -0.4579 0.0832 -0.8851
vn 0.9634 -0.2682 -0.0038
vn -0.1966 -0.9805 0.0030
vn -0.5038 0.1168 -0.8559
vn 0.0002 -0.9774 0.2112
vn -0.0002 -0.9774 0.2112
vn -0.0000 -0.7129 0.7013
vn -0.6140 -0.0446 -0.7881
vn -0.6139 -0.0448 -0.7881
vn -0.6137 -0.0446 -0.7883
vn -0.0000 -0.9509 -0.3096
vn -0.4639 0.0866 -0.8816
vn -0.7373 -0.0363 0.6746
vn -0.7295 -0.0534 0.6819
vn 0.7373 -0.0363 0.6746
vn -0.3755 0.8577 0.3512
vn 0.3755 0.8577 0.3512
vn 0.7295 -0.0534 0.6819
vn 0.6139 -0.0449 -0.7881
vn 0.6140 -0.0447 -0.7880
vn 0.6138 -0.0451 -0.7881
vn 0.4639 0.0866 -0.8816
vn -0.2811 0.9597 -0.0040
vn -0.2816 0.9595 -0.0037
vn -0.2806 0.9598 -0.0045
vn -0.2797 0.9601 -0.0053
vn -0.0306 0.0550 0.9980
vn -0.0263 0.0587 0.9979
vn -0.0304 0.0547 0.9980
vn -0.0299 0.0530 0.9981
vn 0.4184 -0.9083 0.0019
vn 0.4187 -0.9081 0.0019
vn -0.0141 0.0452 -0.9989
vn -0.0136 0.0462 -0.9988
vn -0.0127 0.0400 -0.9991
vn -0.0081 0.0478 -0.9988
vn -0.9853 -0.1705 0.0105
vn -0.9888 -0.1491 -0.0099
vn 0.9894 0.1449 -0.0077
vn 0.9894 0.1450 -0.0098
vn 0.9898 0.1420 -0.0078
vn 0.9894 0.1448 -0.0104
vn 0.3410 0.5312 0.7756
vn -0.8437 0.5369 -0.0024
vn -0.9306 -0.3660 0.0019
vn 0.3503 0.5231 -0.7770
vn 0.4842 0.0031 0.8750
vn -0.9340 -0.3569 -0.0142
vn 0.6060 -0.0367 -0.7946
vn 0.5812 -0.0394 0.8128
vn 0.4917 0.0141 -0.8707
vn -0.8556 -0.5177 -0.0002
vn -0.8554 -0.5180 0.0011
vn -0.7166 0.6975 -0.0040
vn 0.4508 0.4158 0.7899
vn -0.8560 -0.5169 0.0001
vn 0.5170 -0.4138 0.7493
vn 0.4655 -0.3196 0.8254
vn 0.4527 -0.3305 -0.8281
vn 0.4413 0.3988 -0.8039
vn 0.4728 0.0895 0.8766
vn 0.4861 -0.3905 -0.7818
vn -0.9656 -0.2589 -0.0242
vn 0.5018 0.0839 0.8609
vn 0.4428 0.0991 -0.8911
vn -0.9628 -0.2701 0.0069
vn 0.1981 -0.9802 0.0045
vn 0.5104 0.0867 -0.8555
vn -0.0000 -0.3642 -0.9313
vn -0.5467 -0.8289 -0.1186
vn -0.0000 -0.4961 -0.8682
vn -0.0000 -0.4960 -0.8683
vn -0.0000 0.0294 -0.9996
vn -0.0000 0.0291 -0.9996
vn -0.8459 -0.4886 0.2137
vn -0.9797 0.0966 0.1759
vn -0.0000 0.0296 -0.9996
vn 0.5467 -0.8289 -0.1186
vn -0.9686 -0.0442 0.2446
vn -0.0000 -0.5384 0.8427
vn -0.0000 0.9652 0.2614
vn -0.0000 0.1788 0.9839
vn -0.0000 0.1789 0.9839
vn 0.8461 -0.4884 0.2136
vn 0.9797 0.0966 0.1759
vn 0.8939 -0.4438 -0.0635
vn 0.9686 -0.0436 0.2447
vn -0.0000 -0.4843 0.8749
vn -0.8939 -0.4438 -0.0635
vn -0.0000 0.0963 -0.9953
vn -0.0000 0.0963 -0.9954
vn -0.6776 -0.7354 -0.0000
vn -0.7756 -0.6015 0.1913
vn -0.0000 0.0964 -0.9953
vn -0.0000 1.0000 -0.0000
vn 0.6776 -0.7354 -0.0000
vn -0.0000 -0.2854 0.9584
vn -0.0000 0.1282 0.9918
vn -0.0000 0.1278 0.9918
vn 0.7756 -0.6016 0.1911
vn 0.9114 0.3631 0.1937
vn 0.9266 0.2987 0.2285
vn -0.9064 0.3579 0.2242
vn -0.0000 -0.2855 -0.9584
vn -0.9342 0.2968 0.1982
vt 0.430800 0.004100
vt 0.004100 0.443000
vt 0.589300 0.211300
vt 0.349500 0.703100
vt 0.609600 0.162600
vt 0.674600 0.150400
vt 0.634000 0.203200
vt 0.544600 1.032200
vt 0.788400 0.373900
vt 0.552700 1.032200
vt 0.837200 0.325100
vt 0.544600 0.186900
vt 0.028400 0.646200
vt 0.524200 0.126000
vt 0.552700 0.890000
vt 0.532400 0.731500
vt 0.195100 0.922500
vt 0.365800 0.195100
vt 0.117900 0.487700
vt 0.016300 0.540500
vt 0.552700 0.195100
vt 0.556800 0.694900
vt 0.353600 0.890000
vt 0.682700 0.105700
vt 0.727400 0.942800
vt 0.004100 0.447000
vt 0.617700 0.178800
vt 0.361700 0.727400
vt 0.581100 0.191000
vt 0.341400 0.682700
vt 0.625800 0.182900
vt 0.678700 0.170700
vt 0.548600 1.032200
vt 0.845300 0.341400
vt 0.780300 0.349500
vt 0.520200 0.121900
vt 0.028400 0.654300
vt 0.544600 0.199100
vt 0.532400 0.743700
vt 0.552700 0.881900
vt 0.191000 0.918500
vt 0.394200 0.219500
vt 0.365800 0.881900
vt 0.349500 0.890000
vt 0.353600 0.186900
vt 0.491700 0.020300
vt 0.000000 0.499900
vt 0.528300 0.662400
vt 0.487700 1.011900
vt 1.016000 0.552700
vt 0.512100 0.369800
vt 0.150400 0.402300
vt 0.288500 0.203200
vt 0.569000 0.174700
vt 0.280400 0.967200
vt 0.605500 0.361700
vt 0.564900 1.020100
vt 0.739600 0.178800
vt 0.345400 0.211300
vt 0.089400 0.426700
vt 0.682700 0.369800
vt 0.353600 0.991600
vt 0.731500 0.983500
vt 0.520200 0.166600
vt 0.552700 0.361700
vt 0.516100 1.024100
vt 1.032200 0.520200
vt 0.516100 -0.445700
vt 0.167600 0.500500
vt 0.268400 0.564800
vt -0.019100 0.500500
vt 1.051300 0.500500
vt 0.351400 1.272400
vt 0.680800 1.272400
vt 0.864700 0.500500
vt 0.763800 0.564800
vt 0.000000 0.508000
vt 0.491700 0.004100
vt 1.020100 0.536400
vt 0.487700 1.028200
vt 0.495800 0.434800
vt 0.540500 0.597400
vt 0.288500 0.154400
vt 0.150400 0.459200
vt 0.605500 0.438900
vt 0.280400 0.946900
vt 0.569000 0.121900
vt 0.564900 0.995700
vt 0.682700 0.443000
vt 0.085300 0.471400
vt 0.349500 0.154400
vt 0.739600 0.134100
vt 0.731500 0.967200
vt 0.357600 0.967200
vt 0.520200 0.113800
vt 0.552700 0.438900
vt 0.516100 1.003800
vt 0.516100 0.329200
vt 0.239800 0.085300
vt 0.516100 0.256000
vt 0.516100 0.524200
vt 0.077200 0.264200
vt 0.008100 0.564900
vt 0.792500 0.085300
vt 0.016300 0.499900
vt 0.516100 0.231600
vt 0.516100 1.016000
vt 0.516100 0.613700
vt 0.955000 0.264200
vt 1.024100 0.564900
vt 0.979400 0.284500
vt 1.016000 0.499900
vt 0.516100 0.268200
vt 0.052800 0.284500
vt 0.516100 0.573000
vt 0.166600 0.134100
vt 0.113800 0.207300
vt 0.516100 1.032200
vt 0.865600 0.134100
vt 0.516100 0.369800
vt 0.516100 0.581100
vt 0.918500 0.207300
vt 0.991600 0.682700
vt 0.040600 0.682700
vt 0.516100 0.365800
s 1
usemtl Material__25
f 1/1/1 2/1/1 3/1/1
f 4/2/2 1/2/2 3/2/2
f 5/3/3 2/3/3 1/3/3
f 4/4/4 5/4/4 1/4/4
f 2/5/5 6/5/5 3/5/5
f 3/4/6 6/4/6 4/4/6
f 7/6/7 6/6/7 2/6/7
f 2/7/8 5/7/8 7/7/8
f 5/8/9 6/8/9 8/8/9
f 7/9/10 5/9/10 8/9/10
f 6/10/11 5/10/11 4/10/11
f 6/11/12 7/11/12 8/11/12
f 9/12/13 10/12/13 11/12/13
f 9/13/14 11/13/14 12/13/14
f 10/14/15 12/14/15 11/14/15
f 9/12/16 13/12/16 10/12/16
f 14/15/17 13/15/17 9/15/17
f 10/14/18 15/14/18 12/14/18
f 15/16/19 16/16/19 14/16/19
f 14/15/20 16/15/20 13/15/20
f 14/17/21 9/17/21 12/17/21
f 15/16/22 14/16/22 12/16/22
f 17/18/23 18/18/23 19/18/23
f 17/18/24 19/18/24 20/18/24
f 21/19/25 22/19/25 20/19/26
f 20/20/27 22/20/27 17/20/27
f 23/21/28 21/21/29 20/21/29
f 23/21/30 20/21/30 19/21/30
f 21/22/31 23/22/31 24/22/31
f 21/22/32 24/22/33 22/22/33
f 17/23/34 22/23/34 24/23/34
f 23/24/35 19/24/35 18/24/35
f 23/25/36 18/25/36 24/25/36
f 17/23/37 24/23/37 18/23/37
f 25/1/38 26/1/38 27/1/38
f 26/26/39 28/26/39 27/26/39
f 29/27/40 25/27/40 27/27/40
f 29/28/41 27/28/41 28/28/41
f 25/29/42 30/29/42 26/29/42
f 28/30/43 26/30/43 30/30/43
f 30/31/44 25/31/44 31/31/44
f 29/32/45 31/32/45 25/32/45
f 29/33/46 30/33/46 32/33/46
f 31/34/47 29/34/47 32/34/47
f 30/10/48 29/10/48 28/10/48
f 30/35/49 31/35/49 32/35/49
f 33/36/50 34/36/50 35/36/50
f 35/37/51 34/37/51 36/37/51
f 37/38/52 36/38/52 34/38/52
f 33/36/53 37/36/53 34/36/53
f 38/39/54 33/39/54 35/39/54
f 37/38/55 39/38/55 36/38/55
f 36/40/56 39/40/56 40/40/56
f 38/39/57 40/39/57 33/39/57
f 38/41/58 35/41/58 36/41/58
f 36/40/59 40/40/59 38/40/59
f 41/21/60 42/21/61 43/21/60
f 44/19/62 41/19/62 43/19/63
f 42/42/64 45/42/64 43/42/64
f 41/21/65 46/21/65 42/21/65
f 47/22/66 41/22/67 44/22/67
f 44/20/68 43/20/68 45/20/68
f 45/43/69 47/43/69 44/43/69
f 47/22/70 46/22/70 41/22/70
f 47/44/71 45/44/71 48/44/71
f 42/45/72 48/45/72 45/45/72
f 48/25/73 46/25/73 47/25/73
f 48/24/74 42/24/74 46/24/74
f 49/46/75 50/46/75 51/46/75
f 49/46/76 51/46/76 52/46/76
f 53/47/77 54/47/78 52/47/79
f 53/47/77 52/47/79 51/47/80
f 55/48/81 52/48/82 54/48/83
f 55/48/81 49/48/84 52/48/82
f 53/49/85 56/49/85 55/49/85
f 53/49/86 55/49/86 54/49/86
f 49/50/87 55/50/87 56/50/87
f 49/50/88 56/50/88 50/50/88
f 51/51/89 56/51/90 53/51/91
f 51/51/89 50/51/92 56/51/90
f 57/52/93 58/52/93 59/52/93
f 59/53/94 58/53/94 60/53/94
f 60/54/95 61/54/95 59/54/95
f 60/55/96 58/55/96 57/55/96
f 59/56/97 62/56/97 57/56/97
f 60/54/98 63/54/98 61/54/98
f 57/57/99 62/57/99 63/57/99
f 59/56/100 61/56/100 62/56/100
f 57/57/101 63/57/101 60/57/101
f 64/58/102 65/58/102 66/58/102
f 65/59/103 67/59/103 66/59/103
f 68/60/104 67/60/104 65/60/104
f 64/58/105 69/58/105 65/58/105
f 65/61/106 69/61/106 70/61/106
f 66/62/107 67/62/107 68/62/107
f 68/63/108 64/63/108 66/63/108
f 65/61/109 70/61/109 68/61/109
f 71/64/110 69/64/110 64/64/110
f 68/63/111 70/63/111 64/63/111
f 69/65/112 72/65/112 73/65/112
f 71/64/113 72/64/113 69/64/113
f 70/66/114 71/66/114 64/66/114
f 69/65/115 73/65/115 70/65/115
f 71/67/116 73/67/116 72/67/116
f 70/66/117 73/66/117 71/66/117
f 74/68/118 75/68/119 76/68/120
f 76/69/121 75/69/122 77/69/123
f 78/68/124 75/68/119 74/68/118
f 79/70/125 76/70/125 77/70/125
f 80/71/126 75/71/126 78/71/126
f 80/71/127 77/71/127 75/71/127
f 74/72/128 80/72/128 78/72/128
f 79/73/129 77/73/129 80/73/129
f 79/74/130 80/74/130 81/74/130
f 74/72/131 81/72/131 80/72/131
f 74/75/132 76/75/133 81/75/134
f 79/76/135 81/76/135 76/76/135
f 82/77/136 83/77/137 84/77/138
f 82/77/136 84/77/138 85/77/139
f 86/78/140 82/78/141 85/78/142
f 86/78/140 85/78/142 87/78/143
f 88/79/144 89/79/145 86/79/144
f 88/79/144 86/79/144 87/79/144
f 84/80/146 89/80/147 88/80/148
f 84/80/146 83/80/149 89/80/147
f 88/81/150 87/81/150 85/81/150
f 88/81/151 85/81/151 84/81/151
f 82/82/152 89/82/153 83/82/154
f 82/82/152 86/82/155 89/82/153
f 90/83/156 91/83/156 92/83/156
f 90/84/157 93/84/157 91/84/157
f 94/85/158 91/85/158 93/85/158
f 90/86/159 92/86/159 93/86/159
f 95/87/160 92/87/160 91/87/160
f 94/85/161 95/85/161 91/85/161
f 92/88/162 96/88/162 94/88/162
f 95/87/163 96/87/163 92/87/163
f 92/88/164 94/88/164 93/88/164
f 97/89/165 98/89/165 99/89/166
f 100/90/167 99/90/167 98/90/167
f 100/91/168 98/91/168 101/91/168
f 97/89/165 102/89/169 98/89/165
f 102/92/170 103/92/170 101/92/170
f 102/92/171 101/92/171 98/92/171
f 101/93/172 97/93/172 99/93/172
f 100/94/173 101/94/173 99/94/173
f 104/95/174 103/95/174 102/95/174
f 101/93/175 103/93/175 97/93/175
f 105/96/176 104/96/176 102/96/176
f 104/95/177 106/95/177 103/95/177
f 103/97/178 105/97/178 97/97/178
f 105/96/179 102/96/179 97/96/179
f 105/67/180 106/67/180 104/67/180
f 103/97/181 106/97/181 105/97/181
f 107/98/182 108/98/182 109/98/182
f 110/99/183 111/99/183 109/99/183
f 112/100/184 107/100/185 109/100/185
f 112/100/184 109/100/185 111/100/185
f 113/101/186 112/101/187 111/101/186
f 111/102/188 110/102/188 114/102/188
f 111/103/189 115/103/189 113/103/189
f 113/101/186 116/101/190 112/101/187
f 112/104/191 117/104/191 107/104/191
f 115/105/192 111/105/192 114/105/192
f 110/106/193 117/106/193 118/106/193
f 110/106/193 118/106/193 114/106/193
f 115/107/194 119/107/194 116/107/194
f 115/107/194 116/107/194 113/107/194
f 114/108/195 119/108/195 115/108/196
f 117/109/197 112/109/197 118/109/197
f 119/110/198 112/110/198 116/110/198
f 114/108/195 118/108/195 119/108/195
f 108/111/199 107/111/199 117/111/199
f 112/112/200 119/112/200 118/112/200
f 110/113/201 108/113/201 117/113/201
f 108/114/202 110/114/202 109/114/202
f 120/115/203 121/115/204 122/115/204
f 123/116/205 124/116/205 122/116/205
f 124/117/206 125/117/206 122/117/206
f 120/115/203 126/115/207 121/115/204
f 127/118/208 126/118/208 120/118/208
f 123/119/209 121/119/209 124/119/209
f 124/120/210 128/120/210 125/120/210
f 127/118/208 129/118/208 126/118/208
f 128/121/211 127/121/211 125/121/212
f 121/122/213 128/122/213 124/122/213
f 121/123/214 126/123/214 129/123/214
f 128/121/211 129/121/212 127/121/211
f 121/123/215 129/123/215 128/123/215
f 125/124/216 120/124/216 122/124/216
f 123/125/217 122/125/217 121/125/217
f 125/124/218 127/124/218 120/124/218
