# Blender 4.1.1
# www.blender.org
mtllib Shape_IndexedFaceSet.015.mtl
o Shape_IndexedFaceSet.015
v 3.632619 4.272714 -0.658920
v 3.976592 4.100672 -0.658505
v 3.297919 4.439365 -1.043321
v 3.297194 4.440407 -0.019326
v 3.518177 4.330379 -0.019060
v 3.297919 4.439365 -1.043321
v 3.518177 4.330379 -0.019060
v 3.518448 4.329988 -0.403058
v 3.297919 4.439365 -1.043321
v 4.090402 4.043918 -0.402369
v 4.090131 4.044309 -0.018371
v 4.284665 3.946494 -0.795134
v 4.090131 4.044309 -0.018371
v 4.284117 3.947284 -0.019137
v 4.284665 3.946494 -0.795134
v 3.976592 4.100672 -0.658505
v 4.284665 3.946494 -0.795134
v 3.297919 4.439365 -1.043321
v 3.518448 4.329988 -0.403058
v 3.632619 4.272714 -0.658920
v 3.297919 4.439365 -1.043321
v 4.090402 4.043918 -0.402369
v 4.284665 3.946494 -0.795134
v 3.976592 4.100672 -0.658505
v 3.398428 2.099629 -0.784875
v 3.297919 4.439365 -1.043321
v 4.284665 3.946494 -0.795134
v 2.374691 2.611496 -1.042107
v 3.297919 4.439365 -1.043321
v 3.398428 2.099629 -0.784875
v 2.603220 2.498118 -0.401835
v 2.374691 2.611496 -1.042107
v 2.717392 2.439844 -0.657695
v 2.602948 2.498509 -0.017837
v 2.374691 2.611496 -1.042107
v 2.603220 2.498118 -0.401835
v 2.373966 2.612538 -0.018112
v 2.374691 2.611496 -1.042107
v 2.602948 2.498509 -0.017837
v 2.374691 2.611496 -1.042107
v 3.398428 2.099629 -0.784875
v 3.061365 2.268801 -0.657282
v 2.717392 2.439844 -0.657695
v 2.374691 2.611496 -1.042107
v 3.061365 2.268801 -0.657282
v 3.518448 4.329988 -0.403058
v 3.518177 4.330379 -0.019060
v 2.603220 2.498118 -0.401835
v 3.061365 2.268801 -0.657282
v 3.398428 2.099629 -0.784875
v 3.175174 2.211048 -0.401145
v 3.175174 2.211048 -0.401145
v 3.398428 2.099629 -0.784875
v 3.397885 2.100411 -0.016878
v 3.174902 2.211438 -0.017146
v 3.175174 2.211048 -0.401145
v 3.397885 2.100411 -0.016878
v 4.090402 4.043918 -0.402369
v 3.175174 2.211048 -0.401145
v 3.174902 2.211438 -0.017146
v 4.090131 4.044309 -0.018371
v 4.090402 4.043918 -0.402369
v 3.174902 2.211438 -0.017146
v 3.518177 4.330379 -0.019060
v 2.602948 2.498509 -0.017837
v 2.603220 2.498118 -0.401835
v 4.090402 4.043918 -0.402369
v 3.976592 4.100672 -0.658505
v 3.175174 2.211048 -0.401145
v 3.976592 4.100672 -0.658505
v 3.061365 2.268801 -0.657282
v 3.175174 2.211048 -0.401145
v 3.518448 4.329988 -0.403058
v 2.603220 2.498118 -0.401835
v 2.717392 2.439844 -0.657695
v 3.632619 4.272714 -0.658920
v 3.518448 4.329988 -0.403058
v 2.717392 2.439844 -0.657695
v 3.976592 4.100672 -0.658505
v 3.632619 4.272714 -0.658920
v 3.061365 2.268801 -0.657282
v 3.632619 4.272714 -0.658920
v 2.717392 2.439844 -0.657695
v 3.061365 2.268801 -0.657282
vn -0.4473 -0.8944 0.0018
vn -0.4457 -0.8952 0.0006
vn -0.4473 -0.8944 0.0006
vn -0.4471 -0.8945 0.0012
vn -0.4466 -0.8947 0.0010
vn -0.1958 0.0994 0.9756
vn -0.1955 0.0994 0.9757
vn 0.4501 0.8930 -0.0025
vn 0.4458 0.8951 -0.0006
vn 0.4478 0.8942 -0.0027
vn 0.4452 0.8954 0.0029
vn -0.8946 0.4469 -0.0011
vn 0.4491 0.8935 0.0019
vn 0.4457 0.8952 -0.0006
vn 0.8947 -0.4467 0.0011
vn 0.8012 -0.4004 -0.4447
vn 0.8006 -0.4003 -0.4460
vn -0.7999 0.3994 -0.4479
vn -0.8006 0.3995 -0.4467
vn 0.0007 -0.0010 -1.0000
vt 0.000000 -3.025391
vt 2.925781 -1.529297
vt 1.427734 -1.529297
vt 0.929688 0.966797
vt 0.000000 0.966797
vt 0.929688 -0.531250
vt 4.267578 -2.060547
vt 3.423828 0.966797
vt 3.423828 -0.531250
vt 4.267578 0.933594
vt -8.013672 4.457031
vt -7.958984 0.000000
vt 0.966797 4.587891
vt 0.966797 0.000000
vt -0.529297 -1.527344
vt 0.966797 -3.025391
vt 0.000000 -0.529297
vt 0.966797 0.966797
vt -2.025391 -1.527344
vt -3.494141 -1.828125
vt 4.458984 0.000000
vt 0.000000 1.462891
vt 0.000000 0.000000
vt -2.523438 -0.529297
vt -3.494141 0.966797
vt -2.523438 0.966797
vt 4.460938 0.000000
vt 4.458984 1.462891
vt 4.458984 1.464844
vt -1.027344 0.966797
vt 3.462891 -0.148438
vt 3.460938 0.966797
vt -1.027344 -0.148438
vt 4.458984 -0.148438
vt 4.458984 0.966797
vt 0.000000 -0.148438
vt 0.966797 8.949219
vt -0.527344 0.000000
vt -0.529297 8.949219
s 0
usemtl Shape.015
f 3/1/1 2/2/1 1/3/1
f 6/1/2 5/4/2 4/5/2
f 9/1/2 8/6/2 7/4/2
f 12/7/3 11/8/3 10/9/3
f 15/7/3 14/10/3 13/8/3
f 18/1/4 17/7/4 16/2/4
f 21/1/5 20/3/5 19/6/5
f 24/2/3 23/7/3 22/9/3
f 27/11/6 26/12/6 25/13/6
f 30/13/7 29/12/7 28/14/7
f 33/15/8 32/16/8 31/17/8
f 36/17/9 35/16/9 34/5/9
f 39/5/9 38/16/9 37/18/9
f 42/19/10 41/20/10 40/16/10
f 45/19/11 44/16/11 43/15/11
f 48/21/12 47/22/12 46/23/12
f 51/24/13 50/20/13 49/19/13
f 54/25/14 53/20/14 52/24/14
f 57/25/14 56/24/14 55/26/14
f 60/22/15 59/23/15 58/27/15
f 63/22/15 62/27/15 61/28/15
f 66/21/12 65/29/12 64/22/12
f 69/30/16 68/31/16 67/32/16
f 72/30/17 71/33/17 70/31/17
f 75/34/18 74/35/18 73/5/18
f 78/34/19 77/5/19 76/36/19
f 81/37/20 80/38/20 79/14/20
f 84/37/20 83/39/20 82/38/20
